<svg version="1.1" id="Layer_1" xmlns="http://www.w3.org/2000/svg" xmlns:xlink="http://www.w3.org/1999/xlink" x="0px" y="0px"
	 width="100%" viewBox="0 0 487 513" enable-background="new 0 0 487 513" xml:space="preserve">
<path fill="#000000" opacity="1.000000" stroke="none" 
	d="
M1.000000,200.000000 
	C1.000000,133.349854 1.000000,67.199707 1.000000,1.024781 
	C163.276276,1.024781 325.552551,1.024781 487.914429,1.024781 
	C487.914429,171.900208 487.914429,342.800476 487.914429,513.850342 
	C325.666779,513.850342 163.333405,513.850342 1.000000,513.850342 
	C1.000000,409.447296 1.000000,304.973663 1.000000,200.000000 
M481.950836,316.925140 
	C481.545929,298.414886 481.141052,279.904663 480.734833,261.333862 
	C479.589539,261.255920 478.939697,261.173035 478.289856,261.173004 
	C440.129395,261.169617 401.967651,261.014404 363.809509,261.311707 
	C356.302490,261.370178 348.675720,262.607819 341.343323,264.323608 
	C332.252014,266.450958 324.260956,271.500366 317.425873,277.635834 
	C307.919250,286.169373 299.282928,295.665680 290.135162,304.607727 
	C281.858551,312.698242 273.271332,320.472870 265.057098,328.624664 
	C259.308472,334.329559 254.079163,340.555023 248.393494,346.326935 
	C242.926010,351.877380 237.075150,357.048676 231.562439,362.556396 
	C222.973129,371.137970 214.603577,379.939728 205.999664,388.506317 
	C196.964691,397.502136 187.493805,406.074799 178.718887,415.312561 
	C171.495300,422.917114 171.812286,430.544373 178.207962,438.252716 
	C182.758713,443.737488 191.940277,443.510895 198.858566,438.365662 
	C202.676147,435.526459 206.599075,432.828766 210.478729,430.073212 
	C223.699600,420.682861 236.993958,411.393921 250.121643,401.875092 
	C260.589325,394.285065 270.828430,386.380524 281.218353,378.682190 
	C289.130371,372.819794 297.113739,367.053467 305.076233,361.259308 
	C318.470337,351.512695 331.882050,341.790283 345.266602,332.030579 
	C349.303040,329.087311 351.185822,332.522888 353.448090,334.730347 
	C355.863220,337.086975 356.115784,339.752411 353.643463,342.116058 
	C349.345123,346.225433 345.104706,350.464722 340.380829,354.043457 
	C333.183228,359.496246 325.429291,364.214752 318.233063,369.669189 
	C313.866364,372.979034 309.813721,376.839691 308.136993,382.450806 
	C303.474457,398.053650 298.904968,413.686462 294.009857,429.216400 
	C292.420868,434.257568 290.631470,439.487579 287.705170,443.796967 
	C283.172119,450.472473 275.607422,452.441193 267.998505,453.001160 
	C247.262817,454.527161 226.496841,455.637268 205.754974,457.085297 
	C188.646652,458.279633 171.565094,459.862152 154.454315,461.015015 
	C136.353302,462.234558 118.222298,463.012024 100.123093,464.254944 
	C90.942337,464.885345 81.757812,465.815186 72.659996,467.177338 
	C66.352829,468.121704 64.261215,471.991455 65.084023,479.124054 
	C65.797318,485.307343 70.138474,489.948364 75.183739,489.986023 
	C116.595093,490.295135 158.005890,490.751282 199.417786,490.893188 
	C242.574417,491.041107 285.732147,490.912445 328.888885,490.764984 
	C330.316284,490.760132 332.119843,489.551575 333.106018,488.368805 
	C348.018768,470.483154 362.892456,452.563873 377.633484,434.536499 
	C390.419403,418.900116 403.294861,403.324921 415.644623,387.346985 
	C430.957703,367.535187 451.920380,365.121033 474.581299,366.843079 
	C476.945984,367.022736 479.419800,365.766113 481.996002,364.218750 
	C481.935760,348.756744 481.875488,333.294739 481.950836,316.925140 
M316.369598,17.063061 
	C265.042206,17.129055 213.714706,17.167696 162.387711,17.351412 
	C160.105438,17.359579 156.975922,17.973526 155.682358,19.514898 
	C144.933487,32.322765 134.536423,45.425503 124.008286,58.419071 
	C113.401794,71.509346 102.750488,84.563316 92.152054,97.660095 
	C87.432884,103.491707 83.115250,109.685005 78.037453,115.180115 
	C72.030113,121.681152 65.917274,128.288559 58.908680,133.609818 
	C49.796436,140.528290 38.519444,141.213760 27.442152,141.464722 
	C21.150963,141.607254 14.853898,141.490479 8.634008,141.490479 
	C8.078764,158.520844 7.337409,174.887573 7.094216,191.261688 
	C6.961897,200.170700 7.717167,209.090958 7.996627,218.008514 
	C8.294949,227.527969 8.504338,237.050232 8.762156,246.939728 
	C11.280608,246.939728 12.916536,246.939606 14.552464,246.939728 
	C46.384926,246.942032 78.217651,247.015442 110.049683,246.899857 
	C118.681770,246.868515 127.373024,246.789062 135.926529,245.787323 
	C145.604630,244.653900 155.301346,242.399002 163.287888,236.505341 
	C170.504639,231.179779 177.186829,225.063141 183.709152,218.878174 
	C194.666336,208.487762 205.313248,197.770020 216.084198,187.183395 
	C230.019485,173.486511 244.013931,159.848938 257.859161,146.061569 
	C268.755157,135.211121 279.453400,124.162262 290.259216,113.221039 
	C297.286133,106.106079 304.576599,99.234093 311.307251,91.850555 
	C315.186554,87.594948 317.414429,82.253548 315.482788,76.257492 
	C312.016174,65.496613 300.468170,63.390030 291.088898,68.836571 
	C284.624908,72.590179 278.545197,77.026566 272.422882,81.341034 
	C267.169739,85.042961 262.076324,88.973831 256.955750,92.860748 
	C252.145065,96.512428 247.471802,100.349304 242.595917,103.910011 
	C232.163742,111.528297 221.591644,118.955070 211.166489,126.582802 
	C200.110428,134.672150 189.241180,143.018250 178.137115,151.040146 
	C167.262589,158.896210 156.153122,166.426392 145.237030,174.225952 
	C141.810440,176.674255 139.244461,176.501663 136.714615,173.058868 
	C133.511337,168.699539 134.601822,164.483704 140.414536,160.181290 
	C150.116486,153.000214 160.116760,146.209076 169.620773,138.779602 
	C173.953064,135.392960 179.159729,132.544418 180.715637,126.361198 
	C181.942139,121.487061 183.845932,116.786896 185.346481,111.977516 
	C189.940094,97.254745 194.142303,82.396179 199.258499,67.858521 
	C200.772430,63.556728 203.327530,58.677670 209.095291,57.722385 
	C216.616989,56.476608 224.090973,54.654644 231.662155,54.064663 
	C242.398148,53.228065 253.224106,53.595741 263.975433,52.894192 
	C280.031921,51.846466 296.053894,50.277206 312.096832,49.009636 
	C318.493225,48.504257 324.912628,48.292122 331.310516,47.802631 
	C340.312164,47.113934 349.294708,46.156837 358.301758,45.563080 
	C367.645813,44.947113 377.009369,44.627525 386.364410,44.178284 
	C395.422272,43.743313 404.489075,43.435204 413.532440,42.795399 
	C416.221466,42.605152 419.471924,42.234566 421.376831,40.643555 
	C426.508087,36.357872 424.179413,21.210831 418.226379,17.847736 
	C417.814697,17.615149 417.149841,17.836113 416.602722,17.837029 
	C397.787933,17.868511 378.973114,17.898893 359.683899,17.178194 
	C345.564789,17.212149 331.445709,17.246101 316.369598,17.063061 
z"/>
<path fill="#FCFDFE" opacity="1.000000" stroke="none" 
	d="
M360.158325,17.929432 
	C378.973114,17.898893 397.787933,17.868511 416.602722,17.837029 
	C417.149841,17.836113 417.814697,17.615149 418.226379,17.847736 
	C424.179413,21.210831 426.508087,36.357872 421.376831,40.643555 
	C419.471924,42.234566 416.221466,42.605152 413.532440,42.795399 
	C404.489075,43.435204 395.422272,43.743313 386.364410,44.178284 
	C377.009369,44.627525 367.645813,44.947113 358.301758,45.563080 
	C349.294708,46.156837 340.312164,47.113934 331.310516,47.802631 
	C324.912628,48.292122 318.493225,48.504257 312.096832,49.009636 
	C296.053894,50.277206 280.031921,51.846466 263.975433,52.894192 
	C253.224106,53.595741 242.398148,53.228065 231.662155,54.064663 
	C224.090973,54.654644 216.616989,56.476608 209.095291,57.722385 
	C203.327530,58.677670 200.772430,63.556728 199.258499,67.858521 
	C194.142303,82.396179 189.940094,97.254745 185.346481,111.977516 
	C183.845932,116.786896 181.942139,121.487061 180.715637,126.361198 
	C179.159729,132.544418 173.953064,135.392960 169.620773,138.779602 
	C160.116760,146.209076 150.116486,153.000214 140.414536,160.181290 
	C134.601822,164.483704 133.511337,168.699539 136.714615,173.058868 
	C139.244461,176.501663 141.810440,176.674255 145.237030,174.225952 
	C156.153122,166.426392 167.262589,158.896210 178.137115,151.040146 
	C189.241180,143.018250 200.110428,134.672150 211.166489,126.582802 
	C221.591644,118.955070 232.163742,111.528297 242.595917,103.910011 
	C247.471802,100.349304 252.145065,96.512428 256.955750,92.860748 
	C262.076324,88.973831 267.169739,85.042961 272.422882,81.341034 
	C278.545197,77.026566 284.624908,72.590179 291.088898,68.836571 
	C300.468170,63.390030 312.016174,65.496613 315.482788,76.257492 
	C317.414429,82.253548 315.186554,87.594948 311.307251,91.850555 
	C304.576599,99.234093 297.286133,106.106079 290.259216,113.221039 
	C279.453400,124.162262 268.755157,135.211121 257.859161,146.061569 
	C244.013931,159.848938 230.019485,173.486511 216.084198,187.183395 
	C205.313248,197.770020 194.666336,208.487762 183.709152,218.878174 
	C177.186829,225.063141 170.504639,231.179779 163.287888,236.505341 
	C155.301346,242.399002 145.604630,244.653900 135.926529,245.787323 
	C127.373024,246.789062 118.681770,246.868515 110.049683,246.899857 
	C78.217651,247.015442 46.384926,246.942032 14.552464,246.939728 
	C12.916536,246.939606 11.280608,246.939728 8.762156,246.939728 
	C8.504338,237.050232 8.294949,227.527969 7.996627,218.008514 
	C7.717167,209.090958 6.961897,200.170700 7.094216,191.261688 
	C7.337409,174.887573 8.078764,158.520844 8.634008,141.490479 
	C14.853898,141.490479 21.150963,141.607254 27.442152,141.464722 
	C38.519444,141.213760 49.796436,140.528290 58.908680,133.609818 
	C65.917274,128.288559 72.030113,121.681152 78.037453,115.180115 
	C83.115250,109.685005 87.432884,103.491707 92.152054,97.660095 
	C102.750488,84.563316 113.401794,71.509346 124.008286,58.419071 
	C134.536423,45.425503 144.933487,32.322765 155.682358,19.514898 
	C156.975922,17.973526 160.105438,17.359579 162.387711,17.351412 
	C213.714706,17.167696 265.042206,17.129055 317.132141,17.412865 
	C331.982544,17.818254 346.070435,17.873842 360.158325,17.929432 
z"/>
<path fill="#FBFDFE" opacity="1.000000" stroke="none" 
	d="
M481.843018,365.175903 
	C479.419800,365.766113 476.945984,367.022736 474.581299,366.843079 
	C451.920380,365.121033 430.957703,367.535187 415.644623,387.346985 
	C403.294861,403.324921 390.419403,418.900116 377.633484,434.536499 
	C362.892456,452.563873 348.018768,470.483154 333.106018,488.368805 
	C332.119843,489.551575 330.316284,490.760132 328.888885,490.764984 
	C285.732147,490.912445 242.574417,491.041107 199.417786,490.893188 
	C158.005890,490.751282 116.595093,490.295135 75.183739,489.986023 
	C70.138474,489.948364 65.797318,485.307343 65.084023,479.124054 
	C64.261215,471.991455 66.352829,468.121704 72.659996,467.177338 
	C81.757812,465.815186 90.942337,464.885345 100.123093,464.254944 
	C118.222298,463.012024 136.353302,462.234558 154.454315,461.015015 
	C171.565094,459.862152 188.646652,458.279633 205.754974,457.085297 
	C226.496841,455.637268 247.262817,454.527161 267.998505,453.001160 
	C275.607422,452.441193 283.172119,450.472473 287.705170,443.796967 
	C290.631470,439.487579 292.420868,434.257568 294.009857,429.216400 
	C298.904968,413.686462 303.474457,398.053650 308.136993,382.450806 
	C309.813721,376.839691 313.866364,372.979034 318.233063,369.669189 
	C325.429291,364.214752 333.183228,359.496246 340.380829,354.043457 
	C345.104706,350.464722 349.345123,346.225433 353.643463,342.116058 
	C356.115784,339.752411 355.863220,337.086975 353.448090,334.730347 
	C351.185822,332.522888 349.303040,329.087311 345.266602,332.030579 
	C331.882050,341.790283 318.470337,351.512695 305.076233,361.259308 
	C297.113739,367.053467 289.130371,372.819794 281.218353,378.682190 
	C270.828430,386.380524 260.589325,394.285065 250.121643,401.875092 
	C236.993958,411.393921 223.699600,420.682861 210.478729,430.073212 
	C206.599075,432.828766 202.676147,435.526459 198.858566,438.365662 
	C191.940277,443.510895 182.758713,443.737488 178.207962,438.252716 
	C171.812286,430.544373 171.495300,422.917114 178.718887,415.312561 
	C187.493805,406.074799 196.964691,397.502136 205.999664,388.506317 
	C214.603577,379.939728 222.973129,371.137970 231.562439,362.556396 
	C237.075150,357.048676 242.926010,351.877380 248.393494,346.326935 
	C254.079163,340.555023 259.308472,334.329559 265.057098,328.624664 
	C273.271332,320.472870 281.858551,312.698242 290.135162,304.607727 
	C299.282928,295.665680 307.919250,286.169373 317.425873,277.635834 
	C324.260956,271.500366 332.252014,266.450958 341.343323,264.323608 
	C348.675720,262.607819 356.302490,261.370178 363.809509,261.311707 
	C401.967651,261.014404 440.129395,261.169617 478.289856,261.173004 
	C478.939697,261.173035 479.589539,261.255920 480.734833,261.333862 
	C481.141052,279.904663 481.545929,298.414886 481.600830,317.707672 
	C481.137024,333.327911 481.009949,348.165558 480.949860,363.003479 
	C480.946930,363.726410 481.531830,364.451721 481.843018,365.175903 
z"/>
<path fill="#74B3D5" opacity="1.000000" stroke="none" 
	d="
M481.919495,364.697327 
	C481.531830,364.451721 480.946930,363.726410 480.949860,363.003479 
	C481.009949,348.165558 481.137024,333.327911 481.533020,318.161469 
	C481.875488,333.294739 481.935760,348.756744 481.919495,364.697327 
z"/>
<path fill="#44BFF5" opacity="1.000000" stroke="none" 
	d="
M359.921112,17.553812 
	C346.070435,17.873842 331.982544,17.818254 317.610626,17.521362 
	C331.445709,17.246101 345.564789,17.212149 359.921112,17.553812 
z"/>
</svg>