<?xml version="1.0" encoding="UTF-8" standalone="no" ?>
<!DOCTYPE svg PUBLIC "-//W3C//DTD SVG 1.1//EN" "http://www.w3.org/Graphics/SVG/1.1/DTD/svg11.dtd">
<svg xmlns="http://www.w3.org/2000/svg" xmlns:xlink="http://www.w3.org/1999/xlink" version="1.1" width="1080" height="1080" viewBox="0 0 1080 1080" xml:space="preserve">
<desc>Created with Fabric.js 5.2.4</desc>
<defs>
</defs>
<g transform="matrix(1 0 0 1 540 540)" id="ec25c605-48d6-4da2-ba8c-2885cf5e8197"  >
<rect style="stroke: none; stroke-width: 1; stroke-dasharray: none; stroke-linecap: butt; stroke-dashoffset: 0; stroke-linejoin: miter; stroke-miterlimit: 4; fill: rgb(255,255,255); fill-rule: nonzero; opacity: 1; visibility: hidden;" vector-effect="non-scaling-stroke"  x="-540" y="-540" rx="0" ry="0" width="1080" height="1080" />
</g>
<g transform="matrix(1 0 0 1 540 540)" id="43d537e3-8895-4a66-aa07-9d64a6c0513a"  >
</g>
<g transform="matrix(1 0 0 1 540 540)"  >
<g style="" vector-effect="non-scaling-stroke"   >
		<g transform="matrix(1 0 0 1 -28.44 -122.25)"  >
<path style="stroke: none; stroke-width: 1; stroke-dasharray: none; stroke-linecap: butt; stroke-dashoffset: 0; stroke-linejoin: miter; stroke-miterlimit: 4; fill: rgb(0,0,0); fill-rule: nonzero; opacity: 1;" vector-effect="non-scaling-stroke"  transform=" translate(-56.98, -115.17)" d="M 0 0 C 0.78846445 -0.00227563 1.57692891 -0.00455125 2.38928622 -0.00689584 C 3.30072542 -0.01917693 4.21216462 -0.03145801 5.15122318 -0.04411125 C 6.15392945 -0.03723472 7.15663571 -0.0303582 8.18972701 -0.02327329 C 9.25386405 -0.03162995 10.3180011 -0.03998661 11.41438472 -0.0485965 C 14.99814743 -0.07166829 18.58129018 -0.06594822 22.16511458 -0.06033689 C 24.7272249 -0.07066286 27.28932899 -0.08264982 29.8514244 -0.09617978 C 36.0995601 -0.1240795 42.34746603 -0.13282833 48.59565673 -0.13160428 C 53.67421639 -0.13077259 58.75272491 -0.13662391 63.83127326 -0.14722997 C 79.7955991 -0.17992431 95.75976762 -0.18888631 111.72412207 -0.18014023 C 124.32006692 -0.17415976 136.91562237 -0.20454341 149.51147012 -0.25176295 C 162.44122798 -0.29985649 175.37079834 -0.32193902 188.30064762 -0.31645215 C 195.56123139 -0.31387461 202.82144234 -0.32188109 210.08194846 -0.35752279 C 216.91031316 -0.39077844 223.73783991 -0.38773156 230.56622618 -0.36007863 C 233.0744683 -0.35561039 235.58276424 -0.3631313 238.09092826 -0.38342267 C 241.5118784 -0.4092265 244.92999044 -0.39202521 248.35085982 -0.36384946 C 249.34687392 -0.38151087 250.34288802 -0.39917228 251.36908436 -0.41736889 C 257.92101341 -0.30045045 257.92101341 -0.30045045 260.91149479 2.01570183 C 264.20433352 5.71976697 265.82294052 8.71307996 266.21076888 13.75484866 C 265.93257843 17.92770532 265.06355746 22.40206008 261.96076888 25.50484866 C 260.62828206 25.71455301 259.28605395 25.86299195 257.94270247 25.98507327 C 257.08439833 26.06407367 256.2260942 26.14307406 255.34178084 26.22446841 C 254.39878127 26.30539233 253.4557817 26.38631625 252.48420638 26.46969241 C 251.50293776 26.55613513 250.52166915 26.64257785 249.51066512 26.73164004 C 237.88255095 27.72603299 226.23639653 28.40112074 214.58576888 29.06734866 C 212.41257241 29.19396946 210.23939522 29.32092169 208.06623763 29.44820803 C 203.90076302 29.69196353 199.73523102 29.93469763 195.5696556 30.17672366 C 184.56743172 30.8182744 173.5721242 31.50259331 162.58576888 32.37984866 C 151.34012304 33.25586348 140.09239337 34.10314325 128.84254378 34.92336673 C 126.9804991 35.05974172 125.11855746 35.19753186 123.25672835 35.33681887 C 114.75770912 35.97170748 106.33411245 36.59307249 97.80720443 36.46822757 C 91.74817243 36.54618063 85.70556596 37.14850699 79.67170638 37.67672366 C 77.33376543 37.88002287 74.99506224 38.07174393 72.65608138 38.26266116 C 65.28694379 38.88463551 58.14381155 39.66424272 50.96076888 41.50484866 C 49.99139388 41.62859866 49.02201888 41.75234866 48.02326888 41.87984866 C 45.80992735 42.3027796 45.80992735 42.3027796 44.83576888 44.31734866 C 44.40264388 45.40016116 44.40264388 45.40016116 43.96076888 46.50484866 C 43.23373763 47.43104007 43.23373763 47.43104007 42.49201888 48.37594241 C 40.91996074 50.56158447 40.28077964 52.17338011 39.58576888 54.75484866 C 38.34079986 59.17352109 37.02551582 63.56328531 35.64826888 67.94234866 C 35.43847396 68.61322512 35.22867903 69.28410159 35.01252669 69.97530764 C 33.82243308 73.77768327 32.62088586 77.57623476 31.40998763 81.37203616 C 30.88512747 83.02043527 30.36038764 84.6688727 29.83576888 86.31734866 C 29.57763411 87.12607424 29.31949935 87.93479983 29.05354232 88.76803225 C 27.70995275 93.01053392 26.47802508 97.24832386 25.39826888 101.56734866 C 22.62946776 111.77235851 18.68576271 117.59235284 9.96076888 123.50484866 C 8.21399203 124.74641503 6.47467443 125.99806821 4.7349388 127.24947757 C 2.92355467 128.54920527 1.10483242 129.83809816 -0.71501237 131.12594241 C -4.07292223 133.51250105 -7.34869369 135.99620833 -10.58610612 138.54391116 C -12.03923112 139.50484866 -12.03923112 139.50484866 -14.03923112 139.50484866 C -14.03923112 140.16484866 -14.03923112 140.82484866 -14.03923112 141.50484866 C -14.78173112 141.93797366 -15.52423112 142.37109866 -16.28923112 142.81734866 C -19.39494472 144.72312746 -21.07207047 146.44482098 -23.03923112 149.50484866 C -23.41878253 152.69308049 -23.06123263 154.43884412 -22.03923112 157.50484866 C -18.52732303 158.73454744 -18.52732303 158.73454744 -15.03923112 159.50484866 C -15.03923112 158.84484866 -15.03923112 158.18484866 -15.03923112 157.50484866 C -12.03923112 155.50484866 -12.03923112 155.50484866 -9.03923112 155.50484866 C -9.03923112 154.84484866 -9.03923112 154.18484866 -9.03923112 153.50484866 C -7.40195746 152.28832689 -5.69964505 151.15920848 -3.97673112 150.06734866 C 0.99799374 146.83700784 5.82014541 143.47329193 10.58576888 139.94234866 C 15.51323072 136.29630113 20.46607979 132.70654116 25.51936263 129.23531741 C 29.05383169 126.73008574 32.50342915 124.11508172 35.96076888 121.50484866 C 44.1993393 115.28735666 52.45390051 109.11438363 60.88117903 103.15426272 C 65.36178786 99.97003488 69.71606704 96.64340778 74.05158919 93.26534671 C 78.64487235 89.70408095 83.35329403 86.32037086 88.11701888 82.99117678 C 90.86180534 81.06074186 93.50823704 79.07700463 96.05842513 76.89937991 C 98.62778281 74.77957337 101.10245755 73.18773909 103.96076888 71.50484866 C 106.39037956 69.80041906 108.7673732 68.02645286 111.14826888 66.25484866 C 135.31198231 48.41087566 135.31198231 48.41087566 146.96076888 49.50484866 C 150.77821735 50.80134059 152.6002933 52.11591448 155.33576888 55.06734866 C 157.53023557 59.70948974 157.86074616 63.45714997 156.96076888 68.50484866 C 155.68836357 71.52071997 153.99050476 73.94908175 151.96076888 76.50484866 C 151.22213607 77.450376 151.22213607 77.450376 150.46858138 78.41500491 C 147.590742 81.92656539 144.56769915 84.73028691 140.96076888 87.50484866 C 138.44097244 89.9017282 136.13352355 92.28890532 133.96076888 95.00484866 C 130.39287983 99.46470997 126.22502815 103.16525254 121.96076888 106.94234866 C 119.15548589 109.44424549 116.49672211 111.87991827 114.14826888 114.81734866 C 111.95356085 117.51370423 109.69905969 119.38267328 106.96076888 121.50484866 C 105.27314036 123.15028646 103.60673398 124.81773443 101.96076888 126.50484866 C 101.13576888 127.30922366 100.31076888 128.11359866 99.46076888 128.94234866 C 96.87796821 131.51425574 96.87796821 131.51425574 94.46076888 134.56734866 C 92.12038496 137.31729977 89.8016854 139.30313835 86.96076888 141.50484866 C 85.27314036 143.15028646 83.60673398 144.81773443 81.96076888 146.50484866 C 81.13576888 147.30922366 80.31076888 148.11359866 79.46076888 148.94234866 C 76.87796821 151.51425574 76.87796821 151.51425574 74.46076888 154.56734866 C 72.12038496 157.31729977 69.8016854 159.30313835 66.96076888 161.50484866 C 65.28005875 163.15735252 63.6150137 164.82585205 61.96076888 166.50484866 C 61.17806624 167.29802493 60.39536361 168.0912012 59.58894271 168.90841311 C 58.78996566 169.72011966 57.99098861 170.5318262 57.16780013 171.36812991 C 55.36975697 173.18466873 53.57157608 175.00107123 51.77326888 176.81734866 C 50.85867903 177.74869632 49.94408919 178.68004397 49.0017845 179.63961428 C 48.12844466 180.51939944 47.25510482 181.3991846 46.35530013 182.30562991 C 45.55970687 183.1116968 44.76411361 183.9177637 43.94441146 184.74825686 C 41.96076888 186.50484866 41.96076888 186.50484866 39.96076888 186.50484866 C 39.73389388 187.06172366 39.50701888 187.61859866 39.27326888 188.19234866 C 36.92820747 192.32412352 33.3495294 195.2183617 29.71076888 198.19234866 C 26.94334694 200.20908085 26.94334694 200.20908085 25.96076888 202.50484866 C 25.30076888 202.50484866 24.64076888 202.50484866 23.96076888 202.50484866 C 23.96076888 203.16484866 23.96076888 203.82484866 23.96076888 204.50484866 C 22.31725431 205.86661788 20.64554232 207.19446932 18.96076888 208.50484866 C 18.15639388 209.30922366 17.35201888 210.11359866 16.52326888 210.94234866 C 2.24695895 225.21865859 -15.45614666 230.7019494 -35.40147477 230.75368899 C -36.51782304 230.74649844 -37.63417131 230.73930789 -38.78434831 230.73189944 C -40.60114091 230.73233752 -40.60114091 230.73233752 -42.45463639 230.73278445 C -45.73488341 230.73164037 -49.01495357 230.72169905 -52.29516584 230.70763654 C -55.73843106 230.69502485 -59.18170076 230.69395053 -62.62498552 230.69158572 C -69.1269902 230.68540132 -75.6289266 230.66903224 -82.1309014 230.64888674 C -89.54094439 230.62643237 -96.95099087 230.61551047 -104.36105949 230.60549587 C -119.58715456 230.58466285 -134.81318597 230.54954685 -150.03923112 230.50484866 C -150.37142106 226.35197533 -150.69855536 222.19871818 -151.02482682 218.045376 C -151.16501615 216.29395549 -151.16501615 216.29395549 -151.30803758 214.50715274 C -151.99706314 205.69006799 -152.31647754 196.97628137 -152.22673112 188.12984866 C -152.21907438 186.70162816 -152.21184739 185.27340531 -152.20500261 183.84518069 C -152.12371238 171.02223598 -151.86697985 158.2000738 -151.60173112 145.37984866 C -151.58226426 144.39139956 -151.56279741 143.40295047 -151.54274064 142.38454837 C -151.48592665 139.58855295 -151.42206653 136.79281773 -151.35563737 133.99703616 C -151.33890977 133.15086734 -151.32218217 132.30469851 -151.30494767 131.43288821 C -151.1543309 125.61994844 -151.1543309 125.61994844 -150.03923112 124.50484866 C -147.9622171 124.38248194 -145.88133306 124.3250021 -143.80094987 124.29391116 C -141.85672136 124.2513721 -141.85672136 124.2513721 -139.8732155 124.20797366 C -137.8178069 124.16720041 -135.76259573 124.13031685 -133.70695573 124.10348147 C -114.3494576 123.8290748 -100.71121991 119.49531972 -87.03923112 105.50484866 C -86.48106706 104.74301272 -85.922903 103.98117678 -85.34782487 103.19625491 C -84.91598893 102.63809085 -84.484153 102.07992678 -84.03923112 101.50484866 C -83.37923112 101.50484866 -82.71923112 101.50484866 -82.03923112 101.50484866 C -81.79302018 100.78555178 -81.54680925 100.06625491 -81.29313737 99.32516116 C -79.89446466 96.17923687 -78.19883409 94.00561407 -75.97673112 91.37984866 C -74.78370378 89.95479007 -74.78370378 89.95479007 -73.56657487 88.50094241 C -72.73255143 87.51223147 -71.898528 86.52352053 -71.03923112 85.50484866 C -69.36527878 83.48987068 -67.70184379 81.46674585 -66.03923112 79.44234866 C -65.29673112 78.5438721 -64.55423112 77.64539553 -63.78923112 76.71969241 C -62.01858318 74.63322632 -62.01858318 74.63322632 -61.03923112 72.50484866 C -60.37923112 72.50484866 -59.71923112 72.50484866 -59.03923112 72.50484866 C -58.79044206 71.94539553 -58.541653 71.38594241 -58.28532487 70.80953616 C -56.82721561 68.11271966 -55.07490738 65.97767864 -53.10173112 63.62984866 C -49.59590015 59.40831376 -46.16302753 55.14494198 -42.78923112 50.81734866 C -38.07541044 44.77457334 -33.25422563 38.82502227 -28.36637956 32.92208499 C -26.12093743 30.1868862 -24.0928634 27.59571228 -22.28923112 24.54000491 C -21.87673112 23.86840335 -21.46423112 23.19680178 -21.03923112 22.50484866 C -20.37923112 22.50484866 -19.71923112 22.50484866 -19.03923112 22.50484866 C -19.03923112 21.84484866 -19.03923112 21.18484866 -19.03923112 20.50484866 C -18.37923112 20.50484866 -17.71923112 20.50484866 -17.03923112 20.50484866 C -16.81106706 19.79457522 -16.582903 19.08430178 -16.34782487 18.35250491 C -14.76325684 14.90429566 -12.70775136 12.69378559 -10.10173112 9.94234866 C -6.6413744 6.34889177 -6.6413744 6.34889177 -3.66537869 2.37301433 C -2.03923112 0.50484866 -2.03923112 0.50484866 0 0 Z" stroke-linecap="round" />
</g>
		<g transform="matrix(1 0 0 1 28.84 122.16)"  >
<path style="stroke: none; stroke-width: 1; stroke-dasharray: none; stroke-linecap: butt; stroke-dashoffset: 0; stroke-linejoin: miter; stroke-miterlimit: 4; fill: rgb(0,0,0); fill-rule: nonzero; opacity: 1;" vector-effect="non-scaling-stroke"  transform=" translate(91.33, -115.19)" d="M 0 0 C 1.88884918 -0.00021904 1.88884918 -0.00021904 3.81585693 -0.0004425 C 7.25129772 -0.00072822 10.68670325 0.00513199 14.12213588 0.01213145 C 17.71891903 0.01840259 21.31570307 0.01897176 24.91249084 0.02015686 C 31.7156728 0.02325911 38.51883859 0.03145755 45.32201344 0.04150635 C 53.07051461 0.05270189 60.81901658 0.0581866 68.56752384 0.06320179 C 84.4995337 0.07364112 100.43152746 0.09121908 116.36352539 0.11352539 C 117.08880981 7.08714581 117.50985578 13.96541156 117.49291992 20.9753418 C 117.4955484 22.35059525 117.4955484 22.35059525 117.49822998 23.75363159 C 117.50258099 26.74080374 117.49973706 29.72791529 117.49633789 32.71508789 C 117.49701229 34.80447399 117.49798345 36.89386002 117.49923706 38.98324585 C 117.50070436 43.33869176 117.49858855 47.69411705 117.49389648 52.04956055 C 117.48816418 57.64408801 117.49150627 63.23856787 117.49746895 68.83309364 C 117.50107056 73.13602055 117.49993845 77.43893602 117.49734116 81.74186325 C 117.49667261 83.80644105 117.49749781 85.87101987 117.49982071 87.93559647 C 117.50234446 90.80564412 117.49851223 93.67561259 117.49291992 96.5456543 C 117.49494415 97.40374695 117.49696838 98.2618396 117.49905396 99.14593506 C 117.47779538 104.9992554 117.47779538 104.9992554 116.36352539 106.11352539 C 113.52497096 106.1347539 110.70080964 106.10490658 107.86352539 106.05102539 C 90.18633268 105.91074346 72.31636403 107.02699001 58.36352539 119.11352539 C 53.86162852 123.58939974 49.65726838 128.11686429 46.19946289 133.45336914 C 45.59360352 134.3312207 44.98774414 135.20907227 44.36352539 136.11352539 C 43.70352539 136.11352539 43.04352539 136.11352539 42.36352539 136.11352539 C 42.14051758 136.8212207 41.91750977 137.52891602 41.68774414 138.25805664 C 40.08244227 141.71963678 37.80808329 144.11022211 35.17602539 146.80102539 C 30.82852455 151.36322644 27.12275666 156.030711 23.70336914 161.34790039 C 23.2612207 161.93055664 22.81907227 162.51321289 22.36352539 163.11352539 C 21.70352539 163.11352539 21.04352539 163.11352539 20.36352539 163.11352539 C 20.02321289 164.1615332 20.02321289 164.1615332 19.67602539 165.23071289 C 18.08686621 168.72118752 15.86113337 171.37698025 13.36352539 174.23852539 C 10.88341777 177.12253626 8.47856812 179.94096129 6.36352539 183.11352539 C 5.70352539 183.11352539 5.04352539 183.11352539 4.36352539 183.11352539 C 4.12762695 183.8212207 3.89172852 184.52891602 3.64868164 185.25805664 C 2.13692274 188.61701032 0.18379031 190.99754756 -2.19897461 193.80102539 C -5.22817406 197.2516859 -5.22817406 197.2516859 -7.63647461 201.11352539 C -8.29647461 201.11352539 -8.95647461 201.11352539 -9.63647461 201.11352539 C -9.63647461 201.77352539 -9.63647461 202.43352539 -9.63647461 203.11352539 C -10.29647461 203.11352539 -10.95647461 203.11352539 -11.63647461 203.11352539 C -11.95938477 204.1615332 -11.95938477 204.1615332 -12.28881836 205.23071289 C -13.9822303 208.8531419 -16.44385225 211.40932164 -19.19897461 214.23852539 C -23.15107165 218.18116713 -23.15107165 218.18116713 -25.63647461 223.11352539 C -27.26096703 224.82132512 -28.92867488 226.48903297 -30.63647461 228.11352539 C -31.29647461 228.77352539 -31.95647461 229.43352539 -32.63647461 230.11352539 C -34.63616467 230.36241436 -34.63616467 230.36241436 -37.14750671 230.36076355 C -38.1023527 230.36496307 -39.05719868 230.3691626 -40.04097939 230.37348938 C -41.09689466 230.36786484 -42.15280994 230.3622403 -43.24072266 230.35644531 C -44.35625708 230.35829834 -45.4717915 230.36015137 -46.62112999 230.36206055 C -50.3802166 230.36569676 -54.13912256 230.35482569 -57.89819336 230.34399414 C -60.57726888 230.34347564 -63.25633515 230.34372209 -65.93540955 230.34480286 C -73.97320145 230.34544881 -82.01090748 230.32705864 -90.04866886 230.30657959 C -93.82563592 230.29735972 -97.60260665 230.29011585 -101.37957764 230.28271484 C -113.85253883 230.25764695 -126.32548067 230.22937778 -138.79840088 230.18844604 C -155.43957209 230.13471772 -172.08010324 230.10814813 -188.7213465 230.1399194 C -201.34538705 230.16401554 -213.96915671 230.16212439 -226.59318829 230.13205624 C -233.62134783 230.11617585 -240.64897167 230.11386877 -247.67709351 230.14511108 C -254.26896845 230.17438027 -260.85989651 230.16347257 -267.45178413 230.12491417 C -269.86713951 230.11740091 -272.28258197 230.12363418 -274.69785881 230.14451027 C -277.98424732 230.17094396 -281.26675467 230.14850431 -284.55297852 230.11352539 C -285.51075541 230.1329378 -286.46853231 230.15235022 -287.45533276 230.17235088 C -293.73855762 230.03375732 -293.73855762 230.03375732 -296.3435173 227.36405945 C -299.78719136 222.0341358 -300.9451319 217.39724344 -299.63647461 211.11352539 C -297.187224 207.32113736 -294.93985432 205.99398442 -290.65991211 205.05493164 C -285.20722353 203.92974749 -279.74501439 203.45909374 -274.19897461 203.05102539 C -273.10697754 202.96651123 -272.01498047 202.88199707 -270.88989258 202.79492188 C -263.34939085 202.2389029 -255.81789276 201.90963149 -248.26147461 201.67602539 C -238.22563628 201.35787329 -228.25796925 200.63964395 -218.26147461 199.73852539 C -204.81192625 198.53067488 -191.35908658 197.46905463 -177.88647461 196.55102539 C -176.96357635 196.48805267 -176.0406781 196.42507996 -175.08981323 196.36019897 C -162.50250243 195.50839302 -149.91249306 194.78862554 -137.31155396 194.17269897 C -104.83675042 195.12687119 -104.83675042 195.12687119 -77.01318359 182.94750977 C -74.47163776 179.56178671 -73.39903456 175.75570719 -72.19897461 171.73852539 C -71.913125 170.83384521 -71.62727539 169.92916504 -71.33276367 168.99707031 C -70.4090578 166.04287359 -69.51835781 163.08046291 -68.63647461 160.11352539 C -68.32500488 159.06986816 -68.01353516 158.02621094 -67.69262695 156.95092773 C -66.17502133 151.84157752 -64.68133771 146.72598502 -63.21459961 141.60180664 C -55.29246048 113.95699396 -55.29246048 113.95699396 -44.63647461 107.11352539 C -43.57106445 106.28014648 -43.57106445 106.28014648 -42.48413086 105.42993164 C -40.63647461 104.11352539 -40.63647461 104.11352539 -38.63647461 104.11352539 C -38.63647461 103.45352539 -38.63647461 102.79352539 -38.63647461 102.11352539 C -36.73803711 100.60571289 -36.73803711 100.60571289 -34.26147461 98.98852539 C -33.44936523 98.44969727 -32.63725586 97.91086914 -31.80053711 97.35571289 C -29.63647461 96.11352539 -29.63647461 96.11352539 -27.63647461 96.11352539 C -27.63647461 95.45352539 -27.63647461 94.79352539 -27.63647461 94.11352539 C -23.25185922 91.11352539 -23.25185922 91.11352539 -20.63647461 91.11352539 C -20.30647461 90.12352539 -19.97647461 89.13352539 -19.63647461 88.11352539 C -19.05897461 87.84540039 -18.48147461 87.57727539 -17.88647461 87.30102539 C -14.54348854 85.53667163 -12.79744512 83.17490028 -10.63647461 80.11352539 C -9.88562355 77.52615834 -9.88562355 77.52615834 -10.63647461 75.11352539 C -12.07308772 72.59345695 -12.07308772 72.59345695 -14.63647461 71.11352539 C -18.33079972 71.25965434 -18.33079972 71.25965434 -21.63647461 72.11352539 C -21.63647461 72.77352539 -21.63647461 73.43352539 -21.63647461 74.11352539 C -23.62084961 75.52368164 -23.62084961 75.52368164 -26.38647461 77.17602539 C -32.17489159 80.75687008 -37.55087267 84.72558178 -42.96069336 88.84838867 C -46.07681376 91.2009143 -49.23377413 93.49789473 -52.38647461 95.80102539 C -56.17442667 98.57068542 -59.95931883 101.3412542 -63.69897461 104.17602539 C -67.85818877 107.31591354 -72.11073672 110.32483303 -76.36328125 113.33642578 C -80.84625556 116.51935674 -85.24735376 119.80272982 -89.63647461 123.11352539 C -90.96949606 124.1139411 -92.30282816 125.11394302 -93.63647461 126.11352539 C -94.29647461 126.60852539 -94.95647461 127.10352539 -95.63647461 127.61352539 C -101.63647461 132.11352539 -101.63647461 132.11352539 -103.63647461 133.61206055 C -104.97168579 134.61444687 -106.30501849 135.61934021 -107.63647461 136.62670898 C -112.23531133 140.09941454 -116.91021179 143.44204228 -121.63647461 146.73852539 C -127.49128174 150.84122057 -133.25353808 155.0425646 -138.94897461 159.36352539 C -144.44699883 163.53102641 -150.0315083 167.47272182 -155.82397461 171.22680664 C -158.79712819 173.22129717 -161.60958466 175.37133066 -164.44897461 177.55102539 C -168.56014128 180.53882606 -171.38551747 182.40524523 -176.63647461 182.11352539 C -181.59338649 181.26155616 -185.44743924 179.9537955 -188.63647461 175.92602539 C -191.05150919 171.94289543 -191.63647461 168.77275405 -191.63647461 164.11352539 C -188.92497218 154.62326688 -180.76387475 148.16492698 -174.01147461 141.36352539 C -173.36597656 140.71319336 -172.72047852 140.06286133 -172.05541992 139.39282227 C -168.72403604 136.07345265 -165.36394326 132.99354113 -161.63647461 130.11352539 C -159.11667817 127.71664585 -156.80922928 125.32946872 -154.63647461 122.61352539 C -150.80519618 117.82442735 -146.33180565 114.02630125 -141.63647461 110.11352539 C -139.11554377 107.71263888 -136.8111388 105.33185563 -134.63647461 102.61352539 C -131.08542136 98.17470883 -127.05704274 94.6499799 -122.63647461 91.11352539 C -119.9481221 88.55959051 -117.51136204 85.96339031 -115.13647461 83.11352539 C -111.04813868 78.20752228 -106.53178041 74.19294689 -101.63647461 70.11352539 C -99.15927226 67.75428506 -96.89945669 65.4581226 -94.82397461 62.73852539 C -93.0496556 60.60934258 -91.49861009 59.10018535 -89.39819336 57.35180664 C -85.34632095 53.844558 -81.56882472 50.11016294 -77.80053711 46.30493164 C -77.19093643 45.68978699 -76.58133575 45.07464233 -75.95326233 44.44085693 C -73.40180137 41.86176493 -70.85420691 39.27892094 -68.31079102 36.69189453 C -66.43667623 34.78776555 -64.55654139 32.88975142 -62.67553711 30.99243164 C -61.80996689 30.10667198 -61.80996689 30.10667198 -60.9269104 29.20301819 C -59.53426189 27.80156807 -58.08981504 26.45193261 -56.63647461 25.11352539 C -55.97647461 25.11352539 -55.31647461 25.11352539 -54.63647461 25.11352539 C -54.38897461 24.49477539 -54.14147461 23.87602539 -53.88647461 23.23852539 C -52.39907092 20.70993912 -51.19969452 20.39513535 -48.63647461 19.11352539 C -48.4031543 18.52700195 -48.16983398 17.94047852 -47.92944336 17.33618164 C -46.02655213 14.06504839 -43.0931302 12.49117551 -39.94897461 10.55102539 C -39.34891602 10.16495117 -38.74885742 9.77887695 -38.13061523 9.38110352 C -25.89864868 1.66878948 -14.19655032 -0.04321518 0 0 Z" stroke-linecap="round" />
</g>
		<g transform="matrix(1 0 0 1 -166.47 -9.25)"  >
<path style="stroke: none; stroke-width: 1; stroke-dasharray: none; stroke-linecap: butt; stroke-dashoffset: 0; stroke-linejoin: miter; stroke-miterlimit: 4; fill: rgb(0,0,0); fill-rule: nonzero; opacity: 1;" vector-effect="non-scaling-stroke"  transform=" translate(60, -2.66)" d="M 0 0 C 2.97 0.33 5.94 0.66 9 1 C 3.77706021 6.22293979 -7.36916153 5.23069978 -14.36224365 5.24884033 C -15.47859192 5.24164978 -16.59494019 5.23445923 -17.74511719 5.22705078 C -19.56190979 5.22748886 -19.56190979 5.22748886 -21.41540527 5.22793579 C -24.69565229 5.22679171 -27.97572245 5.21685039 -31.25593472 5.20278788 C -34.69919993 5.19017619 -38.14246964 5.18910188 -41.58575439 5.18673706 C -48.08775908 5.18055266 -54.58969548 5.16418358 -61.09167027 5.14403808 C -68.50171327 5.12158371 -75.91175975 5.11066181 -83.32182837 5.10064721 C -98.54792344 5.07981419 -113.77395485 5.04469819 -129 5 C -126.31844678 2.31844678 -124.3163739 2.06712323 -120.5868721 1.87695217 C -119.23183641 1.87833486 -119.23183641 1.87833486 -117.84942627 1.87974548 C -116.80898666 1.87837082 -115.76854706 1.87699615 -114.69657898 1.87557983 C -113.56081924 1.87917511 -112.42505951 1.88277039 -111.25488281 1.88647461 C -110.05460953 1.88632858 -108.85433624 1.88618256 -107.61769104 1.8860321 C -104.33082561 1.88660916 -101.04400282 1.89162255 -97.75714588 1.89860606 C -94.32050067 1.9048597 -90.88385461 1.90544499 -87.44720459 1.90663147 C -80.94141654 1.90973885 -74.4356453 1.91794426 -67.92986465 1.92798096 C -60.52241818 1.9391605 -53.11497091 1.94465719 -45.7075181 1.94967639 C -30.471669 1.96012735 -15.23583667 1.97771533 0 2 C 0 1.34 0 0.68 0 0 Z" stroke-linecap="round" />
</g>
		<g transform="matrix(1 0 0 1 24.53 233.96)"  >
<path style="stroke: none; stroke-width: 1; stroke-dasharray: none; stroke-linecap: butt; stroke-dashoffset: 0; stroke-linejoin: miter; stroke-miterlimit: 4; fill: rgb(0,0,0); fill-rule: nonzero; opacity: 1;" vector-effect="non-scaling-stroke"  transform=" translate(65, -3.87)" d="M 0 0 C 0.99 0.33 1.98 0.66 3 1 C 1.42551573 3.71838687 0.48669547 5.17735285 -2 7 C -6.18499657 7.90686213 -10.32632456 7.75740909 -14.59301758 7.68115234 C -15.87146545 7.6820285 -17.14991333 7.68290466 -18.46710205 7.68380737 C -21.9651369 7.68552657 -25.46193339 7.65029202 -28.9596808 7.60836363 C -32.61780634 7.57081525 -36.27596136 7.56732809 -39.93424988 7.56021118 C -46.85817833 7.54157417 -53.7815373 7.49235345 -60.70521516 7.43211424 C -68.58901827 7.36501282 -76.47284882 7.33205111 -84.35686648 7.30194163 C -100.57157752 7.23925271 -116.78571605 7.1337409 -133 7 C -133 6.67 -133 6.34 -133 6 C -132.34916317 5.99576806 -131.69832634 5.99153612 -131.02776718 5.98717594 C -115.1954754 5.88389591 -99.3632308 5.77526209 -83.5310173 5.66066074 C -75.87469756 5.6053698 -68.21837316 5.55189459 -60.56201172 5.50268555 C -53.88915894 5.45979312 -47.21633989 5.41350238 -40.54353929 5.36312145 C -37.00997119 5.33656126 -33.47640961 5.31170925 -29.94280243 5.29092598 C -25.99925781 5.26766798 -22.05579251 5.23682338 -18.11230469 5.20532227 C -16.35256065 5.19668907 -16.35256065 5.19668907 -14.55726624 5.18788147 C -13.48317001 5.17809265 -12.40907379 5.16830383 -11.3024292 5.15821838 C -10.3695747 5.15176583 -9.4367202 5.14531328 -8.47559738 5.1386652 C -6.17825358 5.00998449 -4.20149832 4.6466382 -2 4 C -2 3.01 -2 2.02 -2 1 C -1.34 0.67 -0.68 0.34 0 0 Z" stroke-linecap="round" />
</g>
		<g transform="matrix(1 0 0 1 -112.47 233.59)"  >
<path style="stroke: none; stroke-width: 1; stroke-dasharray: none; stroke-linecap: butt; stroke-dashoffset: 0; stroke-linejoin: miter; stroke-miterlimit: 4; fill: rgb(0,0,0); fill-rule: nonzero; opacity: 1;" vector-effect="non-scaling-stroke"  transform=" translate(-63, -2.5)" d="M 0 0 C 0.66 0.66 1.32 1.32 2 2 C 7.73494654 3.46300103 13.72529697 3.1743093 19.60498047 3.20532227 C 20.76653152 3.21522186 21.92808258 3.22512146 23.12483215 3.23532104 C 26.95559669 3.26685199 30.78637362 3.29166031 34.6171875 3.31640625 C 37.27662574 3.33698303 39.93605841 3.35793296 42.5954895 3.37937927 C 48.87451623 3.42919752 55.15356786 3.47417643 61.43264306 3.51740164 C 68.58382428 3.56686719 75.73496075 3.62175062 82.88609862 3.67708123 C 97.59068993 3.79073432 112.29532585 3.89760935 127 4 C 127 4.33 127 4.66 127 5 C 85.42 5 43.84 5 1 5 C 0.34 3.68 -0.32 2.36 -1 1 C -0.67 0.67 -0.34 0.34 0 0 Z" stroke-linecap="round" />
</g>
		<g transform="matrix(1 0 0 1 -31.97 -235.53)"  >
<path style="stroke: none; stroke-width: 1; stroke-dasharray: none; stroke-linecap: butt; stroke-dashoffset: 0; stroke-linejoin: miter; stroke-miterlimit: 4; fill: rgb(0,0,0); fill-rule: nonzero; opacity: 1;" vector-effect="non-scaling-stroke"  transform=" translate(-53.49, -1.62)" d="M 0 0 C 0.83145727 0.00184359 1.66291454 0.00368717 2.51956749 0.00558662 C 3.47311623 0.0028373 4.42666496 0.00008797 5.40910912 -0.00274467 C 6.45855202 0.00444588 7.50799492 0.01163643 8.58923912 0.01904488 C 10.24290741 0.0186068 10.24290741 0.0186068 11.92998314 0.01815987 C 15.58780243 0.01955744 19.24542009 0.03513886 22.90320396 0.05078316 C 25.43383231 0.05451176 27.96446209 0.05735945 30.49509239 0.0593586 C 36.48390652 0.06622455 42.47263359 0.08200053 48.46141279 0.10205758 C 55.27873153 0.12439496 62.09605372 0.13540456 68.91339993 0.14544845 C 82.93868747 0.16636621 96.96391049 0.20155567 110.98914146 0.24609566 C 110.98914146 0.57609566 110.98914146 0.90609566 110.98914146 1.24609566 C 109.23719978 1.26155685 109.23719978 1.26155685 107.44986534 1.2773304 C 96.41582244 1.37530067 85.38183297 1.47805582 74.3478775 1.58543491 C 68.67590873 1.64048064 63.00393465 1.69387014 57.3319149 1.74341011 C 51.85296856 1.79132577 46.37408054 1.84367624 40.89520454 1.89903641 C 38.81016947 1.91933739 36.72511849 1.93806967 34.6400547 1.95516968 C 31.7083445 1.97948739 28.77674168 2.00950126 25.8450985 2.04077339 C 24.56654739 2.04940659 24.56654739 2.04940659 23.26216698 2.05821419 C 17.45943505 2.12807337 11.75360795 2.58375669 5.98914146 3.24609566 C 5.98914146 2.91609566 5.98914146 2.58609566 5.98914146 2.24609566 C 4.89601646 2.24609566 3.80289146 2.24609566 2.67664146 2.24609566 C 0.4474748 2.24609566 -1.78169187 2.24609566 -4.01085854 2.24609566 C -2.01085854 0.24609566 -2.01085854 0.24609566 0 0 Z" stroke-linecap="round" />
</g>
		<g transform="matrix(1 0 0 1 -224.47 -86.97)"  >
<path style="stroke: none; stroke-width: 1; stroke-dasharray: none; stroke-linecap: butt; stroke-dashoffset: 0; stroke-linejoin: miter; stroke-miterlimit: 4; fill: rgb(0,0,0); fill-rule: nonzero; opacity: 1;" vector-effect="non-scaling-stroke"  transform=" translate(-8.68, -26.06)" d="M 0 0 C 1.00023193 0.00523682 2.00046387 0.01047363 3.03100586 0.01586914 C 4.1105957 0.0190918 5.19018555 0.02231445 6.30249023 0.02563477 C 8.00695312 0.03820312 8.00695312 0.03820312 9.74584961 0.05102539 C 11.45611328 0.05779297 11.45611328 0.05779297 13.20092773 0.06469727 C 16.02845312 0.07652792 18.85587601 0.09301129 21.68334961 0.11352539 C 21.35334961 0.77352539 21.02334961 1.43352539 20.68334961 2.11352539 C 9.79334961 2.60852539 9.79334961 2.60852539 -1.31665039 3.11352539 C -1.64665039 19.28352539 -1.97665039 35.45352539 -2.31665039 52.11352539 C -2.97665039 52.11352539 -3.63665039 52.11352539 -4.31665039 52.11352539 C -4.19936399 44.86852589 -4.07452804 37.62368526 -3.94433594 30.37890625 C -3.90091096 27.9121397 -3.85924167 25.44534162 -3.81933594 22.97851562 C -3.76181594 19.44139073 -3.69806964 15.90442573 -3.63305664 12.36743164 C -3.61634415 11.25703018 -3.59963165 10.14662872 -3.58241272 9.00257874 C -3.5624675 7.98159592 -3.54252228 6.9606131 -3.52197266 5.90869141 C -3.50642838 5.0049025 -3.49088409 4.10111359 -3.47486877 3.16993713 C -3.2484268 0.22680297 -2.95925576 0.14501569 0 0 Z" stroke-linecap="round" />
</g>
		<g transform="matrix(1 0 0 1 11.03 198.68)"  >
<path style="stroke: none; stroke-width: 1; stroke-dasharray: none; stroke-linecap: butt; stroke-dashoffset: 0; stroke-linejoin: miter; stroke-miterlimit: 4; fill: rgb(0,0,0); fill-rule: nonzero; opacity: 1;" vector-effect="non-scaling-stroke"  transform=" translate(27.5, -4.59)" d="M 0 0 C 0 0.99 0 1.98 0 3 C -9.70149762 9.46766508 -26.25557953 8.3840287 -37.4375 8.8125 C -38.71157715 8.86543213 -39.9856543 8.91836426 -41.29833984 8.97290039 C -42.49797363 9.00891357 -43.69760742 9.04492676 -44.93359375 9.08203125 C -46.5431897 9.13194214 -46.5431897 9.13194214 -48.18530273 9.18286133 C -51.0145797 8.99905281 -52.60760912 8.46844296 -55 7 C -54.15928955 6.94465088 -53.3185791 6.88930176 -52.45239258 6.83227539 C -49.26713369 6.6222271 -46.08191812 6.4115356 -42.89672852 6.20043945 C -41.53053403 6.11002129 -40.16432361 6.01984338 -38.7980957 5.92993164 C -35.48461403 5.71179511 -32.17147778 5.48973939 -28.85864258 5.26196289 C -26.35654719 5.09209586 -23.85377384 4.93183524 -21.3503418 4.78295898 C -15.63413077 4.4137095 -10.56229793 3.94495465 -5.1875 1.9375 C -4.19105469 1.57527344 -3.19460938 1.21304687 -2.16796875 0.83984375 C -1.45253906 0.56269531 -0.73710937 0.28554688 0 0 Z" stroke-linecap="round" />
</g>
		<g transform="matrix(1 0 0 1 119.03 -208.95)"  >
<path style="stroke: none; stroke-width: 1; stroke-dasharray: none; stroke-linecap: butt; stroke-dashoffset: 0; stroke-linejoin: miter; stroke-miterlimit: 4; fill: rgb(0,0,0); fill-rule: nonzero; opacity: 1;" vector-effect="non-scaling-stroke"  transform=" translate(19.5, -1.96)" d="M 0 0 C -3.58947799 2.39298533 -5.6200407 2.39550678 -9.8984375 2.66796875 C -10.57041168 2.71190262 -11.24238586 2.75583649 -11.9347229 2.80110168 C -13.3549744 2.89184083 -14.77551577 2.97813714 -16.19628906 3.06030273 C -18.36093728 3.18667899 -20.52403299 3.32954083 -22.6875 3.47460938 C -34.25069374 4.19608391 -34.25069374 4.19608391 -39 3 C -35.29683729 0.53122486 -32.24125146 0.54920596 -27.9375 0.375 C -26.75921631 0.31807983 -26.75921631 0.31807983 -25.55712891 0.26000977 C -17.03971959 -0.11284883 -8.52324436 -0.09067281 0 0 Z" stroke-linecap="round" />
</g>
		<g transform="matrix(1 0 0 1 1.53 95.09)"  >
<path style="stroke: none; stroke-width: 1; stroke-dasharray: none; stroke-linecap: butt; stroke-dashoffset: 0; stroke-linejoin: miter; stroke-miterlimit: 4; fill: rgb(0,0,0); fill-rule: nonzero; opacity: 1;" vector-effect="non-scaling-stroke"  transform=" translate(9, -10)" d="M 0 0 C 0.33 0.99 0.66 1.98 1 3 C -4.61 8.61 -10.22 14.22 -16 20 C -16.99 19.67 -17.98 19.34 -19 19 C -18.2575 18.278125 -17.515 17.55625 -16.75 16.8125 C -14.036498 14.1304054 -14.036498 14.1304054 -12 11.5 C -8.46467091 7.08083863 -4.47284003 3.4504766 0 0 Z" stroke-linecap="round" />
</g>
		<g transform="matrix(1 0 0 1 -142.47 -167.91)"  >
<path style="stroke: none; stroke-width: 1; stroke-dasharray: none; stroke-linecap: butt; stroke-dashoffset: 0; stroke-linejoin: miter; stroke-miterlimit: 4; fill: rgb(0,0,0); fill-rule: nonzero; opacity: 1;" vector-effect="non-scaling-stroke"  transform=" translate(8, -11)" d="M 0 0 C 0.6640625 1.79296875 0.6640625 1.79296875 1 4 C -0.0390625 5.67578125 -0.0390625 5.67578125 -1.625 7.3125 C -3.82262482 9.67761124 -5.7620891 12.00701603 -7.5625 14.6875 C -9.66029627 17.71159592 -11.98779626 19.8484259 -15 22 C -15.66 21.67 -16.32 21.34 -17 21 C -16.21654285 19.82780457 -15.42297164 18.66236332 -14.625 17.5 C -14.18414062 16.8503125 -13.74328125 16.200625 -13.2890625 15.53125 C -12.65097656 14.77328125 -12.65097656 14.77328125 -12 14 C -11.34 14 -10.68 14 -10 14 C -9.75507812 13.44828125 -9.51015625 12.8965625 -9.2578125 12.328125 C -7.74261886 9.52360509 -5.88915874 7.21896877 -3.875 4.75 C -3.15054688 3.85796875 -2.42609375 2.9659375 -1.6796875 2.046875 C -0.84824219 1.03367187 -0.84824219 1.03367187 0 0 Z" stroke-linecap="round" />
</g>
		<g transform="matrix(1 0 0 1 15.03 140.59)"  >
<path style="stroke: none; stroke-width: 1; stroke-dasharray: none; stroke-linecap: butt; stroke-dashoffset: 0; stroke-linejoin: miter; stroke-miterlimit: 4; fill: rgb(0,0,0); fill-rule: nonzero; opacity: 1;" vector-effect="non-scaling-stroke"  transform=" translate(8.5, -8.5)" d="M 0 0 C 0.99 0.33 1.98 0.66 3 1 C -2.5 5.125 -2.5 5.125 -4.15209961 6.36132812 C -6.60155693 8.19526227 -9.04555962 10.03497942 -11.47265625 11.8984375 C -12.16230469 12.42695313 -12.85195312 12.95546875 -13.5625 13.5 C -14.16191406 13.9640625 -14.76132813 14.428125 -15.37890625 14.90625 C -17 16 -17 16 -20 17 C -19.875 14.6875 -19.875 14.6875 -19 12 C -15.79266696 9.97798569 -13.80845564 9 -10 9 C -10 8.34 -10 7.68 -10 7 C -9.34 7 -8.68 7 -8 7 C -8 6.34 -8 5.68 -8 5 C -7.01 5 -6.02 5 -5 5 C -5 4.34 -5 3.68 -5 3 C -4.01 3 -3.02 3 -2 3 C -2 2.34 -2 1.68 -2 1 C -1.34 0.67 -0.68 0.34 0 0 Z" stroke-linecap="round" />
</g>
		<g transform="matrix(1 0 0 1 74.03 233.93)"  >
<path style="stroke: none; stroke-width: 1; stroke-dasharray: none; stroke-linecap: butt; stroke-dashoffset: 0; stroke-linejoin: miter; stroke-miterlimit: 4; fill: rgb(0,0,0); fill-rule: nonzero; opacity: 1;" vector-effect="non-scaling-stroke"  transform=" translate(15.5, -3.84)" d="M 0 0 C 0.99 0.33 1.98 0.66 3 1 C -0.97800399 6.80139522 -0.97800399 6.80139522 -5.50512695 7.68115234 C -6.81956787 7.64973145 -8.13400879 7.61831055 -9.48828125 7.5859375 C -10.5430793 7.57320297 -10.5430793 7.57320297 -11.6191864 7.56021118 C -13.85189045 7.52678324 -16.08089979 7.45154502 -18.3125 7.375 C -19.8313278 7.34488573 -21.35021259 7.31751245 -22.86914062 7.29296875 C -26.58061534 7.22703363 -30.28994673 7.1235945 -34 7 C -34 6.67 -34 6.34 -34 6 C -33.17274414 5.97494385 -32.34548828 5.9498877 -31.49316406 5.92407227 C -27.74528808 5.80803651 -23.99765875 5.685344 -20.25 5.5625 C -18.29707031 5.50352539 -18.29707031 5.50352539 -16.3046875 5.44335938 C -15.05429687 5.40146484 -13.80390625 5.35957031 -12.515625 5.31640625 C -11.36352539 5.27974854 -10.21142578 5.24309082 -9.02441406 5.20532227 C -6.52259776 5.03547826 -4.38908832 4.72031525 -2 4 C -2 3.01 -2 2.02 -2 1 C -1.34 0.67 -0.68 0.34 0 0 Z" stroke-linecap="round" />
</g>
		<g transform="matrix(1 0 0 1 -50.47 147.09)"  >
<path style="stroke: none; stroke-width: 1; stroke-dasharray: none; stroke-linecap: butt; stroke-dashoffset: 0; stroke-linejoin: miter; stroke-miterlimit: 4; fill: rgb(0,0,0); fill-rule: nonzero; opacity: 1;" vector-effect="non-scaling-stroke"  transform=" translate(8, -9)" d="M 0 0 C 0 0.99 0 1.98 0 3 C -0.9590625 3.37125 -0.9590625 3.37125 -1.9375 3.75 C -4.15962123 4.7658714 -4.15962123 4.7658714 -4.4375 6.75 C -5.34013222 10.36052887 -7.44087286 12.31900967 -10 15 C -10.99 15 -11.98 15 -13 15 C -14.68798827 16.43750191 -14.68798827 16.43750191 -16 18 C -16 15 -16 15 -13.515625 12.1875 C -12.43471385 11.11723822 -11.34579328 10.05501957 -10.25 9 C -9.71117187 8.46632813 -9.17234375 7.93265625 -8.6171875 7.3828125 C -5.88062165 4.69964306 -3.15017755 2.20206586 0 0 Z" stroke-linecap="round" />
</g>
		<g transform="matrix(1 0 0 1 35.53 61.59)"  >
<path style="stroke: none; stroke-width: 1; stroke-dasharray: none; stroke-linecap: butt; stroke-dashoffset: 0; stroke-linejoin: miter; stroke-miterlimit: 4; fill: rgb(0,0,0); fill-rule: nonzero; opacity: 1;" vector-effect="non-scaling-stroke"  transform=" translate(8, -9.5)" d="M 0 0 C 0.66 0.33 1.32 0.66 2 1 C 0.10548397 3.06372321 -1.79056563 5.12600157 -3.6875 7.1875 C -4.21794922 7.76564453 -4.74839844 8.34378906 -5.29492188 8.93945312 C -8.4569327 12.3730477 -11.67475068 15.72410503 -15 19 C -15.99 18.67 -16.98 18.34 -18 18 C -12 12 -6 6 0 0 Z" stroke-linecap="round" />
</g>
		<g transform="matrix(1 0 0 1 -223.47 -110.41)"  >
<path style="stroke: none; stroke-width: 1; stroke-dasharray: none; stroke-linecap: butt; stroke-dashoffset: 0; stroke-linejoin: miter; stroke-miterlimit: 4; fill: rgb(0,0,0); fill-rule: nonzero; opacity: 1;" vector-effect="non-scaling-stroke"  transform=" translate(-12, -2.5)" d="M 0 0 C 7.92 0 15.84 0 24 0 C 23.67 0.66 23.34 1.32 23 2 C 12.11 2.495 12.11 2.495 1 3 C 0.67 3.66 0.34 4.32 0 5 C 0 3.35 0 1.7 0 0 Z" stroke-linecap="round" />
</g>
		<g transform="matrix(1 0 0 1 -111.47 -206.41)"  >
<path style="stroke: none; stroke-width: 1; stroke-dasharray: none; stroke-linecap: butt; stroke-dashoffset: 0; stroke-linejoin: miter; stroke-miterlimit: 4; fill: rgb(0,0,0); fill-rule: nonzero; opacity: 1;" vector-effect="non-scaling-stroke"  transform=" translate(5, -8.5)" d="M 0 0 C 0.66 0 1.32 0 2 0 C 0.83347142 6.85335541 -2.81069948 11.437332 -8 16 C -10.2578125 16.7578125 -10.2578125 16.7578125 -12 17 C -9.07620085 12.43887332 -5.85762886 8.19547274 -2.48828125 3.953125 C -0.95714834 2.06962405 -0.95714834 2.06962405 0 0 Z" stroke-linecap="round" />
</g>
		<g transform="matrix(1 0 0 1 -16.47 113.09)"  >
<path style="stroke: none; stroke-width: 1; stroke-dasharray: none; stroke-linecap: butt; stroke-dashoffset: 0; stroke-linejoin: miter; stroke-miterlimit: 4; fill: rgb(0,0,0); fill-rule: nonzero; opacity: 1;" vector-effect="non-scaling-stroke"  transform=" translate(7, -8)" d="M 0 0 C 0.33 0.99 0.66 1.98 1 3 C -2.45841163 7.90871329 -6.95982192 12.69963234 -12 16 C -12.99 15.67 -13.98 15.34 -15 15 C -11.90330771 11.10701541 -8.94764934 8.05942824 -5 5 C -3.31471312 3.35216394 -1.64302953 1.68997323 0 0 Z" stroke-linecap="round" />
</g>
		<g transform="matrix(1 0 0 1 -85.47 -107.91)"  >
<path style="stroke: none; stroke-width: 1; stroke-dasharray: none; stroke-linecap: butt; stroke-dashoffset: 0; stroke-linejoin: miter; stroke-miterlimit: 4; fill: rgb(0,0,0); fill-rule: nonzero; opacity: 1;" vector-effect="non-scaling-stroke"  transform=" translate(7, -8)" d="M 0 0 C 0.99 0.66 1.98 1.32 3 2 C 0.79252608 3.58454292 -1.41594742 5.16766053 -3.625 6.75 C -4.24246094 7.1934375 -4.85992187 7.636875 -5.49609375 8.09375 C -9.28397513 10.80507562 -13.1093764 13.438174 -17 16 C -16.62005832 13.24542282 -16.1926367 12.17979426 -14.125 10.25 C -12 9 -12 9 -9 9 C -8.67 8.01 -8.34 7.02 -8 6 C -7.01 6 -6.02 6 -5 6 C -5 5.34 -5 4.68 -5 4 C -4.01 4 -3.02 4 -2 4 C -1.34 2.68 -0.68 1.36 0 0 Z" stroke-linecap="round" />
</g>
		<g transform="matrix(1 0 0 1 18.53 78.09)"  >
<path style="stroke: none; stroke-width: 1; stroke-dasharray: none; stroke-linecap: butt; stroke-dashoffset: 0; stroke-linejoin: miter; stroke-miterlimit: 4; fill: rgb(0,0,0); fill-rule: nonzero; opacity: 1;" vector-effect="non-scaling-stroke"  transform=" translate(6, -7)" d="M 0 0 C 0.33 0.99 0.66 1.98 1 3 C -2.63 6.63 -6.26 10.26 -10 14 C -10.99 13.67 -11.98 13.34 -13 13 C -12.2575 12.278125 -11.515 11.55625 -10.75 10.8125 C -8.01605421 8.11767823 -8.01605421 8.11767823 -5.9375 5.375 C -4.11393401 3.13966105 -2.37504647 1.61163867 0 0 Z" stroke-linecap="round" />
</g>
		<g transform="matrix(1 0 0 1 55.53 -185.1)"  >
<path style="stroke: none; stroke-width: 1; stroke-dasharray: none; stroke-linecap: butt; stroke-dashoffset: 0; stroke-linejoin: miter; stroke-miterlimit: 4; fill: rgb(0,0,0); fill-rule: nonzero; opacity: 1;" vector-effect="non-scaling-stroke"  transform=" translate(8.27, -1.79)" d="M 0 0 C 0.57105469 0.32355469 1.14210938 0.64710937 1.73046875 0.98046875 C 1.07046875 1.64046875 0.41046875 2.30046875 -0.26953125 2.98046875 C -1.25953125 2.65046875 -2.24953125 2.32046875 -3.26953125 1.98046875 C -4.93220999 1.83826596 -6.60104855 1.76026308 -8.26953125 1.73046875 C -9.13578125 1.7046875 -10.00203125 1.67890625 -10.89453125 1.65234375 C -13.69856319 2.0397429 -14.53239907 2.80905353 -16.26953125 4.98046875 C -16.26953125 4.32046875 -16.26953125 3.66046875 -16.26953125 2.98046875 C -16.92953125 2.65046875 -17.58953125 2.32046875 -18.26953125 1.98046875 C -12.44711116 -0.99268193 -6.27010399 -2.81669043 0 0 Z" stroke-linecap="round" />
</g>
		<g transform="matrix(1 0 0 1 26.03 197.26)"  >
<path style="stroke: none; stroke-width: 1; stroke-dasharray: none; stroke-linecap: butt; stroke-dashoffset: 0; stroke-linejoin: miter; stroke-miterlimit: 4; fill: rgb(0,0,0); fill-rule: nonzero; opacity: 1;" vector-effect="non-scaling-stroke"  transform=" translate(12.5, -3.16)" d="M 0 0 C 0 0.99 0 1.98 0 3 C -6.9773247 7.6515498 -16.93592821 6.10193349 -25 6 C -25 5.67 -25 5.34 -25 5 C -24.20078125 4.97421875 -23.4015625 4.9484375 -22.578125 4.921875 C -14.46500883 4.50288778 -7.56675139 2.93126405 0 0 Z" stroke-linecap="round" />
</g>
		<g transform="matrix(1 0 0 1 -48.97 204.56)"  >
<path style="stroke: none; stroke-width: 1; stroke-dasharray: none; stroke-linecap: butt; stroke-dashoffset: 0; stroke-linejoin: miter; stroke-miterlimit: 4; fill: rgb(0,0,0); fill-rule: nonzero; opacity: 1;" vector-effect="non-scaling-stroke"  transform=" translate(13.5, -1.47)" d="M 0 0 C 0 0.33 0 0.66 0 1 C -1.670625 1.2165625 -1.670625 1.2165625 -3.375 1.4375 C -6.82142047 1.78372035 -6.82142047 1.78372035 -9 3 C -10.87939453 3.02172852 -10.87939453 3.02172852 -13.1328125 2.87890625 C -13.93847656 2.83056641 -14.74414062 2.78222656 -15.57421875 2.73242188 C -16.41597656 2.67634766 -17.25773438 2.62027344 -18.125 2.5625 C -19.39923828 2.48418945 -19.39923828 2.48418945 -20.69921875 2.40429688 C -22.79979124 2.27448622 -24.89994191 2.1378826 -27 2 C -27 1.67 -27 1.34 -27 1 C -18.02243049 -0.3300103 -9.05168034 -0.08788039 0 0 Z" stroke-linecap="round" />
</g>
		<g transform="matrix(1 0 0 1 85.03 -207.31)"  >
<path style="stroke: none; stroke-width: 1; stroke-dasharray: none; stroke-linecap: butt; stroke-dashoffset: 0; stroke-linejoin: miter; stroke-miterlimit: 4; fill: rgb(0,0,0); fill-rule: nonzero; opacity: 1;" vector-effect="non-scaling-stroke"  transform=" translate(4.5, -1.22)" d="M 0 0 C 0.87011719 0.05671875 1.74023438 0.1134375 2.63671875 0.171875 C 4.75857631 0.3117777 6.87942723 0.46681211 9 0.625 C 9 0.955 9 1.285 9 1.625 C -0.01814321 2.77016104 -8.9280648 2.71971858 -18 2.625 C -18 2.295 -18 1.965 -18 1.625 C -11.73220931 -0.27564949 -6.50172143 -0.49936417 0 0 Z" stroke-linecap="round" />
</g>
		<g transform="matrix(1 0 0 1 -75.47 206.41)"  >
<path style="stroke: none; stroke-width: 1; stroke-dasharray: none; stroke-linecap: butt; stroke-dashoffset: 0; stroke-linejoin: miter; stroke-miterlimit: 4; fill: rgb(0,0,0); fill-rule: nonzero; opacity: 1;" vector-effect="non-scaling-stroke"  transform=" translate(13, -1.32)" d="M 0 0 C 0 0.33 0 0.66 0 1 C -8.95736873 3.25330897 -16.90024068 2.90874789 -26 2 C -26 1.67 -26 1.34 -26 1 C -17.3387414 -0.25981943 -8.72998757 -0.09020653 0 0 Z" stroke-linecap="round" />
</g>
		<g transform="matrix(1 0 0 1 -74.97 -23.41)"  >
<path style="stroke: none; stroke-width: 1; stroke-dasharray: none; stroke-linecap: butt; stroke-dashoffset: 0; stroke-linejoin: miter; stroke-miterlimit: 4; fill: rgb(0,0,0); fill-rule: nonzero; opacity: 1;" vector-effect="non-scaling-stroke"  transform=" translate(5.5, -6.5)" d="M 0 0 C 0.66 0 1.32 0 2 0 C 2 0.99 2 1.98 2 3 C -0.01171875 4.97265625 -0.01171875 4.97265625 -2.6875 7.0625 C -3.55761719 7.75472656 -4.42773438 8.44695312 -5.32421875 9.16015625 C -7.84136354 10.89092296 -10.12610369 12.00060903 -13 13 C -12.34 11.68 -11.68 10.36 -11 9 C -9.68 9 -8.36 9 -7 9 C -6.67 8.01 -6.34 7.02 -6 6 C -5.34 5.67 -4.68 5.34 -4 5 C -3.67 4.01 -3.34 3.02 -3 2 C -2.01 2 -1.02 2 0 2 C 0 1.34 0 0.68 0 0 Z" stroke-linecap="round" />
</g>
		<g transform="matrix(1 0 0 1 -44.47 -184.91)"  >
<path style="stroke: none; stroke-width: 1; stroke-dasharray: none; stroke-linecap: butt; stroke-dashoffset: 0; stroke-linejoin: miter; stroke-miterlimit: 4; fill: rgb(0,0,0); fill-rule: nonzero; opacity: 1;" vector-effect="non-scaling-stroke"  transform=" translate(0, -8)" d="M 0 0 C 1.32 0.33 2.64 0.66 4 1 C 3.401875 1.61875 2.80375 2.2375 2.1875 2.875 C -0.68944158 6.98491654 -1.76502183 11.18171396 -3 16 C -3.33 16 -3.66 16 -4 16 C -3.40546697 4.29384966 -3.40546697 4.29384966 0 0 Z" stroke-linecap="round" />
</g>
		<g transform="matrix(1 0 0 1 -31.97 128.09)"  >
<path style="stroke: none; stroke-width: 1; stroke-dasharray: none; stroke-linecap: butt; stroke-dashoffset: 0; stroke-linejoin: miter; stroke-miterlimit: 4; fill: rgb(0,0,0); fill-rule: nonzero; opacity: 1;" vector-effect="non-scaling-stroke"  transform=" translate(5.5, -7)" d="M 0 0 C 0.33 0.66 0.66 1.32 1 2 C -2.27530896 6.63720719 -5.30435607 10.68542782 -10 14 C -10.66 13.67 -11.32 13.34 -12 13 C -8.49058007 8.81522779 -4.91806547 4.80612075 -1 1 C -0.67 0.67 -0.34 0.34 0 0 Z" stroke-linecap="round" />
</g>
		<g transform="matrix(1 0 0 1 226.53 111.42)"  >
<path style="stroke: none; stroke-width: 1; stroke-dasharray: none; stroke-linecap: butt; stroke-dashoffset: 0; stroke-linejoin: miter; stroke-miterlimit: 4; fill: rgb(0,0,0); fill-rule: nonzero; opacity: 1;" vector-effect="non-scaling-stroke"  transform=" translate(-8, -1.33)" d="M 0 0 C 2.45862401 -0.05383848 4.9160755 -0.09359038 7.375 -0.125 C 8.42300781 -0.15013672 8.42300781 -0.15013672 9.4921875 -0.17578125 C 11.32897486 -0.19344267 13.16601963 -0.10303261 15 0 C 15.66 0.66 16.32 1.32 17 2 C 10.96496237 3.50875941 5.10261631 2.64186094 -1 2 C -0.67 1.34 -0.34 0.68 0 0 Z" stroke-linecap="round" />
</g>
		<g transform="matrix(1 0 0 1 -8.97 158.09)"  >
<path style="stroke: none; stroke-width: 1; stroke-dasharray: none; stroke-linecap: butt; stroke-dashoffset: 0; stroke-linejoin: miter; stroke-miterlimit: 4; fill: rgb(0,0,0); fill-rule: nonzero; opacity: 1;" vector-effect="non-scaling-stroke"  transform=" translate(2.5, -5)" d="M 0 0 C 1.32 0.33 2.64 0.66 4 1 C 0.04 3.97 -3.92 6.94 -8 10 C -8.33 9.01 -8.66 8.02 -9 7 C -8.34 7 -7.68 7 -7 7 C -6.67 6.01 -6.34 5.02 -6 4 C -2.9375 2.3125 -2.9375 2.3125 0 1 C 0 0.67 0 0.34 0 0 Z" stroke-linecap="round" />
</g>
		<g transform="matrix(1 0 0 1 98.53 98.59)"  >
<path style="stroke: none; stroke-width: 1; stroke-dasharray: none; stroke-linecap: butt; stroke-dashoffset: 0; stroke-linejoin: miter; stroke-miterlimit: 4; fill: rgb(0,0,0); fill-rule: nonzero; opacity: 1;" vector-effect="non-scaling-stroke"  transform=" translate(6, -4.5)" d="M 0 0 C -3.18843931 6.60462428 -3.18843931 6.60462428 -6.4375 8.1875 C -9 9 -9 9 -12 9 C -12 8.34 -12 7.68 -12 7 C -7.61538462 4 -7.61538462 4 -5 4 C -4.67 3.01 -4.34 2.02 -4 1 C -2 0 -2 0 0 0 Z" stroke-linecap="round" />
</g>
		<g transform="matrix(1 0 0 1 -20.97 -74.91)"  >
<path style="stroke: none; stroke-width: 1; stroke-dasharray: none; stroke-linecap: butt; stroke-dashoffset: 0; stroke-linejoin: miter; stroke-miterlimit: 4; fill: rgb(0,0,0); fill-rule: nonzero; opacity: 1;" vector-effect="non-scaling-stroke"  transform=" translate(1.5, -6)" d="M 0 0 C 1.32 0.66 2.64 1.32 4 2 C 0.84778899 6.41309542 -2.55463907 9.00793014 -7 12 C -7 11.01 -7 10.02 -7 9 C -6.34 9 -5.68 9 -5 9 C -4.731875 8.360625 -4.46375 7.72125 -4.1875 7.0625 C -3 5 -3 5 0 4 C 0 2.68 0 1.36 0 0 Z" stroke-linecap="round" />
</g>
		<g transform="matrix(1 0 0 1 -128.97 -184.91)"  >
<path style="stroke: none; stroke-width: 1; stroke-dasharray: none; stroke-linecap: butt; stroke-dashoffset: 0; stroke-linejoin: miter; stroke-miterlimit: 4; fill: rgb(0,0,0); fill-rule: nonzero; opacity: 1;" vector-effect="non-scaling-stroke"  transform=" translate(4.5, -6)" d="M 0 0 C 0 3.46877176 -0.61849799 5.82254537 -2 9 C -4.0625 9.75 -4.0625 9.75 -6 10 C -6.33 10.66 -6.66 11.32 -7 12 C -7.66 11.67 -8.32 11.34 -9 11 C -6.03 7.37 -3.06 3.74 0 0 Z" stroke-linecap="round" />
</g>
		<g transform="matrix(1 0 0 1 -58.14 -145.91)"  >
<path style="stroke: none; stroke-width: 1; stroke-dasharray: none; stroke-linecap: butt; stroke-dashoffset: 0; stroke-linejoin: miter; stroke-miterlimit: 4; fill: rgb(0,0,0); fill-rule: nonzero; opacity: 1;" vector-effect="non-scaling-stroke"  transform=" translate(1.67, -9)" d="M 0 0 C 1.63129887 4.06285757 0.29968777 7.20102184 -0.9375 11.25 C -1.31777344 12.51328125 -1.69804687 13.7765625 -2.08984375 15.078125 C -2.39019531 16.04234375 -2.69054687 17.0065625 -3 18 C -3.33 18 -3.66 18 -4 18 C -4.45164525 10.88658735 -3.32797915 6.28453206 0 0 Z" stroke-linecap="round" />
</g>
		<g transform="matrix(1 0 0 1 70.53 26.59)"  >
<path style="stroke: none; stroke-width: 1; stroke-dasharray: none; stroke-linecap: butt; stroke-dashoffset: 0; stroke-linejoin: miter; stroke-miterlimit: 4; fill: rgb(0,0,0); fill-rule: nonzero; opacity: 1;" vector-effect="non-scaling-stroke"  transform=" translate(3, -4.5)" d="M 0 0 C 0.66 0 1.32 0 2 0 C 1.75881648 3.25597758 0.47775788 4.7276304 -1.875 6.8125 C -2.90625 7.534375 -3.9375 8.25625 -5 9 C -5.99 8.67 -6.98 8.34 -8 8 C -6.71034824 6.62437146 -5.37310707 5.29233607 -4 4 C -3.34 4 -2.68 4 -2 4 C -1.34 2.68 -0.68 1.36 0 0 Z" stroke-linecap="round" />
</g>
		<g transform="matrix(1 0 0 1 81.53 18.09)"  >
<path style="stroke: none; stroke-width: 1; stroke-dasharray: none; stroke-linecap: butt; stroke-dashoffset: 0; stroke-linejoin: miter; stroke-miterlimit: 4; fill: rgb(0,0,0); fill-rule: nonzero; opacity: 1;" vector-effect="non-scaling-stroke"  transform=" translate(4, -4)" d="M 0 0 C 0.66 0.33 1.32 0.66 2 1 C -3.53846154 6.84615385 -3.53846154 6.84615385 -7 8 C -7.99 7.67 -8.98 7.34 -10 7 C -6.7 4.69 -3.4 2.38 0 0 Z" stroke-linecap="round" />
</g>
		<g transform="matrix(1 0 0 1 -104.47 -9.91)"  >
<path style="stroke: none; stroke-width: 1; stroke-dasharray: none; stroke-linecap: butt; stroke-dashoffset: 0; stroke-linejoin: miter; stroke-miterlimit: 4; fill: rgb(0,0,0); fill-rule: nonzero; opacity: 1;" vector-effect="non-scaling-stroke"  transform=" translate(-2, -2)" d="M 0 0 C 2.97 0.33 5.94 0.66 9 1 C 6.31907309 3.68092691 4.60832637 3.38670257 0.875 3.625 C -0.22070312 3.69976562 -1.31640625 3.77453125 -2.4453125 3.8515625 C -3.28835937 3.90054688 -4.13140625 3.94953125 -5 4 C -5 3.34 -5 2.68 -5 2 C -3.35 2 -1.7 2 0 2 C 0 1.34 0 0.68 0 0 Z" stroke-linecap="round" />
</g>
		<g transform="matrix(1 0 0 1 61.69 138.59)"  >
<path style="stroke: none; stroke-width: 1; stroke-dasharray: none; stroke-linecap: butt; stroke-dashoffset: 0; stroke-linejoin: miter; stroke-miterlimit: 4; fill: rgb(0,0,0); fill-rule: nonzero; opacity: 1;" vector-effect="non-scaling-stroke"  transform=" translate(0.85, -7.5)" d="M 0 0 C 1.1875 1.6875 1.1875 1.6875 2 4 C 0.75 6.375 0.75 6.375 -1 9 C -1.71143088 10.98451771 -2.38991336 12.98202112 -3 15 C -4.17266191 11.48201427 -3.73410958 10.39202021 -2.625 6.9375 C -2.34914063 6.05964844 -2.07328125 5.18179687 -1.7890625 4.27734375 C -1 2 -1 2 0 0 Z" stroke-linecap="round" />
</g>
		<g transform="matrix(1 0 0 1 -69.47 -121.41)"  >
<path style="stroke: none; stroke-width: 1; stroke-dasharray: none; stroke-linecap: butt; stroke-dashoffset: 0; stroke-linejoin: miter; stroke-miterlimit: 4; fill: rgb(0,0,0); fill-rule: nonzero; opacity: 1;" vector-effect="non-scaling-stroke"  transform=" translate(4, -5.5)" d="M 0 0 C 0.33 0.66 0.66 1.32 1 2 C -1.01577062 6.50584021 -3.83128248 8.49876949 -8 11 C -8.33 10.01 -8.66 9.02 -9 8 C -5.375 5 -5.375 5 -2 5 C -1.855625 4.360625 -1.71125 3.72125 -1.5625 3.0625 C -1 1 -1 1 0 0 Z" stroke-linecap="round" />
</g>
		<g transform="matrix(1 0 0 1 -15.97 -139.49)"  >
<path style="stroke: none; stroke-width: 1; stroke-dasharray: none; stroke-linecap: butt; stroke-dashoffset: 0; stroke-linejoin: miter; stroke-miterlimit: 4; fill: rgb(0,0,0); fill-rule: nonzero; opacity: 1;" vector-effect="non-scaling-stroke"  transform=" translate(4.5, -3.42)" d="M 0 0 C -0.37507382 2.71928517 -0.84218661 3.84218661 -2.8125 5.8125 C -5 7 -5 7 -7.13671875 6.57421875 C -7.75160156 6.38472656 -8.36648437 6.19523437 -9 6 C -7.8803014 4.99406757 -6.7540588 3.9954151 -5.625 3 C -4.68527344 2.1646875 -4.68527344 2.1646875 -3.7265625 1.3125 C -2 0 -2 0 0 0 Z" stroke-linecap="round" />
</g>
		<g transform="matrix(1 0 0 1 187.53 119.58)"  >
<path style="stroke: none; stroke-width: 1; stroke-dasharray: none; stroke-linecap: butt; stroke-dashoffset: 0; stroke-linejoin: miter; stroke-miterlimit: 4; fill: rgb(0,0,0); fill-rule: nonzero; opacity: 1;" vector-effect="non-scaling-stroke"  transform=" translate(6, -3.49)" d="M 0 0 C -2.23574822 2.23574822 -4.28966629 3.24368358 -7.125 4.625 C -8.03507812 5.07101562 -8.94515625 5.51703125 -9.8828125 5.9765625 C -10.58148438 6.31429688 -11.28015625 6.65203125 -12 7 C -12 6.01 -12 5.02 -12 4 C -11.01 4 -10.02 4 -9 4 C -8.67 3.01 -8.34 2.02 -8 1 C -5.07175348 0.02391783 -3.04386724 -0.08226668 0 0 Z" stroke-linecap="round" />
</g>
		<g transform="matrix(1 0 0 1 109.59 86.09)"  >
<path style="stroke: none; stroke-width: 1; stroke-dasharray: none; stroke-linecap: butt; stroke-dashoffset: 0; stroke-linejoin: miter; stroke-miterlimit: 4; fill: rgb(0,0,0); fill-rule: nonzero; opacity: 1;" vector-effect="non-scaling-stroke"  transform=" translate(-0.05, -5)" d="M 0 0 C 0.99 0.33 1.98 0.66 3 1 C 3.25 6.625 3.25 6.625 1 10 C -0.32 9.67 -1.64 9.34 -3 9 C -2.505 8.62875 -2.01 8.2575 -1.5 7.875 C 0.59755514 5.25305607 0.21743835 3.26157528 0 0 Z" stroke-linecap="round" />
</g>
		<g transform="matrix(1 0 0 1 54.53 42.09)"  >
<path style="stroke: none; stroke-width: 1; stroke-dasharray: none; stroke-linecap: butt; stroke-dashoffset: 0; stroke-linejoin: miter; stroke-miterlimit: 4; fill: rgb(0,0,0); fill-rule: nonzero; opacity: 1;" vector-effect="non-scaling-stroke"  transform=" translate(4, -5)" d="M 0 0 C 0.33 0.99 0.66 1.98 1 3 C -1.64 5.31 -4.28 7.62 -7 10 C -7.66 9.67 -8.32 9.34 -9 9 C -6.03 6.03 -3.06 3.06 0 0 Z" stroke-linecap="round" />
</g>
		<g transform="matrix(1 0 0 1 -73.47 -97.41)"  >
<path style="stroke: none; stroke-width: 1; stroke-dasharray: none; stroke-linecap: butt; stroke-dashoffset: 0; stroke-linejoin: miter; stroke-miterlimit: 4; fill: rgb(0,0,0); fill-rule: nonzero; opacity: 1;" vector-effect="non-scaling-stroke"  transform=" translate(5, -3.5)" d="M 0 0 C -0.1875 1.8125 -0.1875 1.8125 -1 4 C -3.3125 5.8125 -3.3125 5.8125 -6 7 C -8.16796875 6.57421875 -8.16796875 6.57421875 -10 6 C -8.71283353 4.99421411 -7.42011342 3.99553202 -6.125 3 C -5.40570313 2.443125 -4.68640625 1.88625 -3.9453125 1.3125 C -2 0 -2 0 0 0 Z" stroke-linecap="round" />
</g>
		<g transform="matrix(1 0 0 1 40.53 -178.91)"  >
<path style="stroke: none; stroke-width: 1; stroke-dasharray: none; stroke-linecap: butt; stroke-dashoffset: 0; stroke-linejoin: miter; stroke-miterlimit: 4; fill: rgb(0,0,0); fill-rule: nonzero; opacity: 1;" vector-effect="non-scaling-stroke"  transform=" translate(5, -5)" d="M 0 0 C -0.33 0.99 -0.66 1.98 -1 3 C -1.99 3.33 -2.98 3.66 -4 4 C -5.70855022 7.00007271 -5.70855022 7.00007271 -7 10 C -7.33 9.01 -7.66 8.02 -8 7 C -8.66 6.67 -9.32 6.34 -10 6 C -8.71283353 4.99421411 -7.42011342 3.99553202 -6.125 3 C -5.40570313 2.443125 -4.68640625 1.88625 -3.9453125 1.3125 C -2 0 -2 0 0 0 Z" stroke-linecap="round" />
</g>
		<g transform="matrix(1 0 0 1 55.71 156.59)"  >
<path style="stroke: none; stroke-width: 1; stroke-dasharray: none; stroke-linecap: butt; stroke-dashoffset: 0; stroke-linejoin: miter; stroke-miterlimit: 4; fill: rgb(0,0,0); fill-rule: nonzero; opacity: 1;" vector-effect="non-scaling-stroke"  transform=" translate(0.82, -6.5)" d="M 0 0 C 0.33 0 0.66 0 1 0 C 1.31563182 5.26053037 0.66590937 8.44573816 -2 13 C -3.18771723 9.57056481 -2.80226223 7.62215325 -1.5625 4.25 C -1.27503906 3.45078125 -0.98757813 2.6515625 -0.69140625 1.828125 C -0.46324219 1.22484375 -0.23507812 0.6215625 0 0 Z" stroke-linecap="round" />
</g>
		<g transform="matrix(1 0 0 1 209.03 112.66)"  >
<path style="stroke: none; stroke-width: 1; stroke-dasharray: none; stroke-linecap: butt; stroke-dashoffset: 0; stroke-linejoin: miter; stroke-miterlimit: 4; fill: rgb(0,0,0); fill-rule: nonzero; opacity: 1;" vector-effect="non-scaling-stroke"  transform=" translate(1.69, -1.13)" d="M 0 0 C 1.90845703 0.15275391 1.90845703 0.15275391 3.85546875 0.30859375 C 4.83128906 0.39238281 5.80710937 0.47617187 6.8125 0.5625 C 6.8125 0.8925 6.8125 1.2225 6.8125 1.5625 C -1.6025 2.0575 -1.6025 2.0575 -10.1875 2.5625 C -10.1875 1.9025 -10.1875 1.2425 -10.1875 0.5625 C -6.51762779 -0.66079074 -3.84782178 -0.31771006 0 0 Z" stroke-linecap="round" />
</g>
		<g transform="matrix(1 0 0 1 87.03 107.09)"  >
<path style="stroke: none; stroke-width: 1; stroke-dasharray: none; stroke-linecap: butt; stroke-dashoffset: 0; stroke-linejoin: miter; stroke-miterlimit: 4; fill: rgb(0,0,0); fill-rule: nonzero; opacity: 1;" vector-effect="non-scaling-stroke"  transform=" translate(5.5, -4)" d="M 0 0 C 0 0.66 0 1.32 0 2 C -1.2065625 2.4021875 -1.2065625 2.4021875 -2.4375 2.8125 C -3.283125 3.204375 -4.12875 3.59625 -5 4 C -5.33 4.99 -5.66 5.98 -6 7 C -7.65 7.33 -9.3 7.66 -11 8 C -11 7.34 -11 6.68 -11 6 C -9.1015625 4.4921875 -9.1015625 4.4921875 -6.625 2.875 C -5.81289063 2.33617187 -5.00078125 1.79734375 -4.1640625 1.2421875 C -2 0 -2 0 0 0 Z" stroke-linecap="round" />
</g>
		<g transform="matrix(1 0 0 1 7.03 145.59)"  >
<path style="stroke: none; stroke-width: 1; stroke-dasharray: none; stroke-linecap: butt; stroke-dashoffset: 0; stroke-linejoin: miter; stroke-miterlimit: 4; fill: rgb(0,0,0); fill-rule: nonzero; opacity: 1;" vector-effect="non-scaling-stroke"  transform=" translate(3.5, -3.5)" d="M 0 0 C -1.28519565 2.86697492 -2.57129254 4.97607712 -5 7 C -5.66 7 -6.32 7 -7 7 C -6.6875 4.625 -6.6875 4.625 -6 2 C -3 0 -3 0 0 0 Z" stroke-linecap="round" />
</g>
		<g transform="matrix(1 0 0 1 -6.47 -146.41)"  >
<path style="stroke: none; stroke-width: 1; stroke-dasharray: none; stroke-linecap: butt; stroke-dashoffset: 0; stroke-linejoin: miter; stroke-miterlimit: 4; fill: rgb(0,0,0); fill-rule: nonzero; opacity: 1;" vector-effect="non-scaling-stroke"  transform=" translate(5, -3.5)" d="M 0 0 C -1.3809002 3.33717549 -2.8201238 5.22301036 -6 7 C -8.1328125 6.57421875 -8.1328125 6.57421875 -10 6 C -8.71283353 4.99421411 -7.42011342 3.99553202 -6.125 3 C -5.40570313 2.443125 -4.68640625 1.88625 -3.9453125 1.3125 C -2 0 -2 0 0 0 Z" stroke-linecap="round" />
</g>
		<g transform="matrix(1 0 0 1 -114.47 -202.91)"  >
<path style="stroke: none; stroke-width: 1; stroke-dasharray: none; stroke-linecap: butt; stroke-dashoffset: 0; stroke-linejoin: miter; stroke-miterlimit: 4; fill: rgb(0,0,0); fill-rule: nonzero; opacity: 1;" vector-effect="non-scaling-stroke"  transform=" translate(3, -5)" d="M 0 0 C 0.33 0.66 0.66 1.32 1 2 C -0.37393005 5.66381347 -1.1447677 7.56243929 -4.6875 9.375 C -5.450625 9.58125 -6.21375 9.7875 -7 10 C -4.75421558 6.59260295 -2.48862878 3.23521742 0 0 Z" stroke-linecap="round" />
</g>
		<g transform="matrix(1 0 0 1 88.03 233.21)"  >
<path style="stroke: none; stroke-width: 1; stroke-dasharray: none; stroke-linecap: butt; stroke-dashoffset: 0; stroke-linejoin: miter; stroke-miterlimit: 4; fill: rgb(0,0,0); fill-rule: nonzero; opacity: 1;" vector-effect="non-scaling-stroke"  transform=" translate(1.5, -3.12)" d="M 0 0 C 0.99 0.33 1.98 0.66 3 1 C 1.3125 3.5 1.3125 3.5 -1 6 C -3.75 6.3125 -3.75 6.3125 -6 6 C -4.68 5.34 -3.36 4.68 -2 4 C -2 3.01 -2 2.02 -2 1 C -1.34 0.67 -0.68 0.34 0 0 Z" stroke-linecap="round" />
</g>
		<g transform="matrix(1 0 0 1 -6.97 -88.91)"  >
<path style="stroke: none; stroke-width: 1; stroke-dasharray: none; stroke-linecap: butt; stroke-dashoffset: 0; stroke-linejoin: miter; stroke-miterlimit: 4; fill: rgb(0,0,0); fill-rule: nonzero; opacity: 1;" vector-effect="non-scaling-stroke"  transform=" translate(-0.5, -4)" d="M 0 0 C 1.32 0.66 2.64 1.32 4 2 C -0.75 6.875 -0.75 6.875 -3 8 C -3 7.01 -3 6.02 -3 5 C -2.34 5 -1.68 5 -1 5 C -0.67 3.35 -0.34 1.7 0 0 Z" stroke-linecap="round" />
</g>
		<g transform="matrix(1 0 0 1 -93.97 -227.91)"  >
<path style="stroke: none; stroke-width: 1; stroke-dasharray: none; stroke-linecap: butt; stroke-dashoffset: 0; stroke-linejoin: miter; stroke-miterlimit: 4; fill: rgb(0,0,0); fill-rule: nonzero; opacity: 1;" vector-effect="non-scaling-stroke"  transform=" translate(3.5, -5)" d="M 0 0 C 0.33 0.99 0.66 1.98 1 3 C -1.31 5.31 -3.62 7.62 -6 10 C -6.66 9.67 -7.32 9.34 -8 9 C -5.36 6.03 -2.72 3.06 0 0 Z" stroke-linecap="round" />
</g>
		<g transform="matrix(1 0 0 1 -54.97 187.47)"  >
<path style="stroke: none; stroke-width: 1; stroke-dasharray: none; stroke-linecap: butt; stroke-dashoffset: 0; stroke-linejoin: miter; stroke-miterlimit: 4; fill: rgb(0,0,0); fill-rule: nonzero; opacity: 1;" vector-effect="non-scaling-stroke"  transform=" translate(6.5, -1.38)" d="M 0 0 C -0.33 0.66 -0.66 1.32 -1 2 C -5.29942266 2.90949326 -8.74936599 3.15926382 -13 2 C -13 1.67 -13 1.34 -13 1 C -8.60563789 0.14256349 -4.47427924 -0.08948558 0 0 Z" stroke-linecap="round" />
</g>
		<g transform="matrix(1 0 0 1 -4.47 102.09)"  >
<path style="stroke: none; stroke-width: 1; stroke-dasharray: none; stroke-linecap: butt; stroke-dashoffset: 0; stroke-linejoin: miter; stroke-miterlimit: 4; fill: rgb(0,0,0); fill-rule: nonzero; opacity: 1;" vector-effect="non-scaling-stroke"  transform=" translate(1, -3)" d="M 0 0 C 0.99 0.33 1.98 0.66 3 1 C 1.35 2.65 -0.3 4.3 -2 6 C -2.99 5.67 -3.98 5.34 -5 5 C -3.35 3.35 -1.7 1.7 0 0 Z" stroke-linecap="round" />
</g>
		<g transform="matrix(1 0 0 1 47.53 51.09)"  >
<path style="stroke: none; stroke-width: 1; stroke-dasharray: none; stroke-linecap: butt; stroke-dashoffset: 0; stroke-linejoin: miter; stroke-miterlimit: 4; fill: rgb(0,0,0); fill-rule: nonzero; opacity: 1;" vector-effect="non-scaling-stroke"  transform=" translate(1, -4)" d="M 0 0 C 0.99 0.33 1.98 0.66 3 1 C 0.03 3.475 0.03 3.475 -3 6 C -3 3 -3 3 -1.5 1.3125 C -0.7575 0.6628125 -0.7575 0.6628125 0 0 Z M -4 6 C -3.67 6.66 -3.34 7.32 -3 8 C -3.66 7.67 -4.32 7.34 -5 7 C -4.67 6.67 -4.34 6.34 -4 6 Z" stroke-linecap="round" />
</g>
		<g transform="matrix(1 0 0 1 -94.47 -82.41)"  >
<path style="stroke: none; stroke-width: 1; stroke-dasharray: none; stroke-linecap: butt; stroke-dashoffset: 0; stroke-linejoin: miter; stroke-miterlimit: 4; fill: rgb(0,0,0); fill-rule: nonzero; opacity: 1;" vector-effect="non-scaling-stroke"  transform=" translate(3, -3.5)" d="M 0 0 C 0.33 0.99 0.66 1.98 1 3 C -0.65 4.32 -2.3 5.64 -4 7 C -4.99 6.34 -5.98 5.68 -7 5 C -5.68 4.67 -4.36 4.34 -3 4 C -3 3.34 -3 2.68 -3 2 C -2.01 1.34 -1.02 0.68 0 0 Z" stroke-linecap="round" />
</g>
		<g transform="matrix(1 0 0 1 13.03 -202.91)"  >
<path style="stroke: none; stroke-width: 1; stroke-dasharray: none; stroke-linecap: butt; stroke-dashoffset: 0; stroke-linejoin: miter; stroke-miterlimit: 4; fill: rgb(0,0,0); fill-rule: nonzero; opacity: 1;" vector-effect="non-scaling-stroke"  transform=" translate(-4.5, -2)" d="M 0 0 C 0.66 0 1.32 0 2 0 C 2 0.66 2 1.32 2 2 C 4.97 2 7.94 2 11 2 C 10.67 2.66 10.34 3.32 10 4 C 6.04 4 2.08 4 -2 4 C -1.34 2.68 -0.68 1.36 0 0 Z" stroke-linecap="round" />
</g>
		<g transform="matrix(1 0 0 1 -102.97 -77.84)"  >
<path style="stroke: none; stroke-width: 1; stroke-dasharray: none; stroke-linecap: butt; stroke-dashoffset: 0; stroke-linejoin: miter; stroke-miterlimit: 4; fill: rgb(0,0,0); fill-rule: nonzero; opacity: 1;" vector-effect="non-scaling-stroke"  transform=" translate(-4.5, -2.07)" d="M 0 0 C 2.31 0.66 4.62 1.32 7 2 C 7 1.34 7 0.68 7 0 C 7.66 0.33 8.32 0.66 9 1 C 8.01 2.485 8.01 2.485 7 4 C 4.375 4.1875 4.375 4.1875 2 4 C 1.34 2.68 0.68 1.36 0 0 Z" stroke-linecap="round" />
</g>
		<g transform="matrix(1 0 0 1 -159.97 -146.41)"  >
<path style="stroke: none; stroke-width: 1; stroke-dasharray: none; stroke-linecap: butt; stroke-dashoffset: 0; stroke-linejoin: miter; stroke-miterlimit: 4; fill: rgb(0,0,0); fill-rule: nonzero; opacity: 1;" vector-effect="non-scaling-stroke"  transform=" translate(2.5, -4.5)" d="M 0 0 C 0.33 0.66 0.66 1.32 1 2 C 0.22265625 3.7265625 0.22265625 3.7265625 -0.9375 5.625 C -1.618125 6.73875 -2.29875 7.8525 -3 9 C -3.99 8.67 -4.98 8.34 -6 8 C -4.02 5.36 -2.04 2.72 0 0 Z" stroke-linecap="round" />
</g>
		<g transform="matrix(1 0 0 1 17.53 -164.41)"  >
<path style="stroke: none; stroke-width: 1; stroke-dasharray: none; stroke-linecap: butt; stroke-dashoffset: 0; stroke-linejoin: miter; stroke-miterlimit: 4; fill: rgb(0,0,0); fill-rule: nonzero; opacity: 1;" vector-effect="non-scaling-stroke"  transform=" translate(3, -3.5)" d="M 0 0 C 0.66 0.33 1.32 0.66 2 1 C -0.23407889 4.35111834 -1.26215824 5.81553956 -5.25 6.8125 C -6.61125 6.9053125 -6.61125 6.9053125 -8 7 C -6.62141149 4.24282298 -4.62533685 3.53678254 -2 2 C -1.34 1.34 -0.68 0.68 0 0 Z" stroke-linecap="round" />
</g>
		<g transform="matrix(1 0 0 1 174.53 -213.7)"  >
<path style="stroke: none; stroke-width: 1; stroke-dasharray: none; stroke-linecap: butt; stroke-dashoffset: 0; stroke-linejoin: miter; stroke-miterlimit: 4; fill: rgb(0,0,0); fill-rule: nonzero; opacity: 1;" vector-effect="non-scaling-stroke"  transform=" translate(4, -1.21)" d="M 0 0 C -0.99 1.485 -0.99 1.485 -2 3 C -5.125 3.1875 -5.125 3.1875 -8 3 C -5.45189726 -0.82215411 -4.39145359 -1.46381786 0 0 Z" stroke-linecap="round" />
</g>
		<g transform="matrix(1 0 0 1 43.03 191.09)"  >
<path style="stroke: none; stroke-width: 1; stroke-dasharray: none; stroke-linecap: butt; stroke-dashoffset: 0; stroke-linejoin: miter; stroke-miterlimit: 4; fill: rgb(0,0,0); fill-rule: nonzero; opacity: 1;" vector-effect="non-scaling-stroke"  transform=" translate(1.5, -3)" d="M 0 0 C 0.66 0.33 1.32 0.66 2 1 C 1.3125 2.9375 1.3125 2.9375 0 5 C -2.625 5.75 -2.625 5.75 -5 6 C -3.35 4.02 -1.7 2.04 0 0 Z" stroke-linecap="round" />
</g>
		<g transform="matrix(1 0 0 1 68.53 122.59)"  >
<path style="stroke: none; stroke-width: 1; stroke-dasharray: none; stroke-linecap: butt; stroke-dashoffset: 0; stroke-linejoin: miter; stroke-miterlimit: 4; fill: rgb(0,0,0); fill-rule: nonzero; opacity: 1;" vector-effect="non-scaling-stroke"  transform=" translate(3, -3.5)" d="M 0 0 C -1.39332574 3.36720387 -2.9789286 4.9859524 -6 7 C -5.6875 4.625 -5.6875 4.625 -5 2 C -2 0 -2 0 0 0 Z" stroke-linecap="round" />
</g>
		<g transform="matrix(1 0 0 1 7.53 -156.41)"  >
<path style="stroke: none; stroke-width: 1; stroke-dasharray: none; stroke-linecap: butt; stroke-dashoffset: 0; stroke-linejoin: miter; stroke-miterlimit: 4; fill: rgb(0,0,0); fill-rule: nonzero; opacity: 1;" vector-effect="non-scaling-stroke"  transform=" translate(3, -3.5)" d="M 0 0 C 0.33 0.66 0.66 1.32 1 2 C -1 4 -1 4 -3 5 C -3 5.66 -3 6.32 -3 7 C -4.32 6.34 -5.64 5.68 -7 5 C -4.69 3.35 -2.38 1.7 0 0 Z" stroke-linecap="round" />
</g>
		<g transform="matrix(1 0 0 1 159.53 147.59)"  >
<path style="stroke: none; stroke-width: 1; stroke-dasharray: none; stroke-linecap: butt; stroke-dashoffset: 0; stroke-linejoin: miter; stroke-miterlimit: 4; fill: rgb(0,0,0); fill-rule: nonzero; opacity: 1;" vector-effect="non-scaling-stroke"  transform=" translate(-1, -3.5)" d="M 0 0 C 1.32 0.33 2.64 0.66 4 1 C 2.35 2.98 0.7 4.96 -1 7 C -1.33 5.68 -1.66 4.36 -2 3 C -1.34 2.67 -0.68 2.34 0 2 C 0 1.34 0 0.68 0 0 Z" stroke-linecap="round" />
</g>
		<g transform="matrix(1 0 0 1 88.03 86.59)"  >
<path style="stroke: none; stroke-width: 1; stroke-dasharray: none; stroke-linecap: butt; stroke-dashoffset: 0; stroke-linejoin: miter; stroke-miterlimit: 4; fill: rgb(0,0,0); fill-rule: nonzero; opacity: 1;" vector-effect="non-scaling-stroke"  transform=" translate(0.5, -3.5)" d="M 0 0 C 1.32 0.66 2.64 1.32 4 2 C 1.03 3.65 -1.94 5.3 -5 7 C -4.34 5.68 -3.68 4.36 -3 3 C -2.01 3 -1.02 3 0 3 C 0 2.01 0 1.02 0 0 Z" stroke-linecap="round" />
</g>
		<g transform="matrix(1 0 0 1 -48.47 -47.91)"  >
<path style="stroke: none; stroke-width: 1; stroke-dasharray: none; stroke-linecap: butt; stroke-dashoffset: 0; stroke-linejoin: miter; stroke-miterlimit: 4; fill: rgb(0,0,0); fill-rule: nonzero; opacity: 1;" vector-effect="non-scaling-stroke"  transform=" translate(0, -3)" d="M 0 0 C 0.99 0.66 1.98 1.32 3 2 C 1.35 3.32 -0.3 4.64 -2 6 C -2.33 5.01 -2.66 4.02 -3 3 C -2.01 2.01 -1.02 1.02 0 0 Z" stroke-linecap="round" />
</g>
		<g transform="matrix(1 0 0 1 177.03 -230.91)"  >
<path style="stroke: none; stroke-width: 1; stroke-dasharray: none; stroke-linecap: butt; stroke-dashoffset: 0; stroke-linejoin: miter; stroke-miterlimit: 4; fill: rgb(0,0,0); fill-rule: nonzero; opacity: 1;" vector-effect="non-scaling-stroke"  transform=" translate(-2.5, -4)" d="M 0 0 C 1.65 1.65 3.3 3.3 5 5 C 4.67 5.99 4.34 6.98 4 8 C 2 6.25 2 6.25 0 4 C 0 2.68 0 1.36 0 0 Z" stroke-linecap="round" />
</g>
		<g transform="matrix(1 0 0 1 122.02 194.09)"  >
<path style="stroke: none; stroke-width: 1; stroke-dasharray: none; stroke-linecap: butt; stroke-dashoffset: 0; stroke-linejoin: miter; stroke-miterlimit: 4; fill: rgb(0,0,0); fill-rule: nonzero; opacity: 1;" vector-effect="non-scaling-stroke"  transform=" translate(-1.48, -3)" d="M 0 0 C 2.0625 0.4375 2.0625 0.4375 4 1 C 2.35 2.65 0.7 4.3 -1 6 C -1.042721 4.33388095 -1.04063832 2.66617115 -1 1 C -0.67 0.67 -0.34 0.34 0 0 Z" stroke-linecap="round" />
</g>
		<g transform="matrix(1 0 0 1 77.53 94.72)"  >
<path style="stroke: none; stroke-width: 1; stroke-dasharray: none; stroke-linecap: butt; stroke-dashoffset: 0; stroke-linejoin: miter; stroke-miterlimit: 4; fill: rgb(0,0,0); fill-rule: nonzero; opacity: 1;" vector-effect="non-scaling-stroke"  transform=" translate(4, -1.63)" d="M 0 0 C -5.75 4 -5.75 4 -8 4 C -8 3.01 -8 2.02 -8 1 C -3.375 -1.125 -3.375 -1.125 0 0 Z" stroke-linecap="round" />
</g>
		<g transform="matrix(1 0 0 1 -82.47 -90.91)"  >
<path style="stroke: none; stroke-width: 1; stroke-dasharray: none; stroke-linecap: butt; stroke-dashoffset: 0; stroke-linejoin: miter; stroke-miterlimit: 4; fill: rgb(0,0,0); fill-rule: nonzero; opacity: 1;" vector-effect="non-scaling-stroke"  transform=" translate(2, -3)" d="M 0 0 C 0.33 1.32 0.66 2.64 1 4 C -0.98 4.99 -0.98 4.99 -3 6 C -3.66 5.34 -4.32 4.68 -5 4 C -3.35 2.68 -1.7 1.36 0 0 Z" stroke-linecap="round" />
</g>
		<g transform="matrix(1 0 0 1 -99.97 -96.91)"  >
<path style="stroke: none; stroke-width: 1; stroke-dasharray: none; stroke-linecap: butt; stroke-dashoffset: 0; stroke-linejoin: miter; stroke-miterlimit: 4; fill: rgb(0,0,0); fill-rule: nonzero; opacity: 1;" vector-effect="non-scaling-stroke"  transform=" translate(0.5, -3)" d="M 0 0 C 0.99 0.33 1.98 0.66 3 1 C 2.01 1.33 1.02 1.66 0 2 C 0 2.66 0 3.32 0 4 C -1.98 4.99 -1.98 4.99 -4 6 C -4 5.01 -4 4.02 -4 3 C -3.34 3 -2.68 3 -2 3 C -2 2.34 -2 1.68 -2 1 C -1.34 0.67 -0.68 0.34 0 0 Z" stroke-linecap="round" />
</g>
		<g transform="matrix(1 0 0 1 -101.92 -218.41)"  >
<path style="stroke: none; stroke-width: 1; stroke-dasharray: none; stroke-linecap: butt; stroke-dashoffset: 0; stroke-linejoin: miter; stroke-miterlimit: 4; fill: rgb(0,0,0); fill-rule: nonzero; opacity: 1;" vector-effect="non-scaling-stroke"  transform=" translate(1.45, -3.5)" d="M 0 0 C 0.33 0 0.66 0 1 0 C 1.125 2.375 1.125 2.375 1 5 C 0.34 5.66 -0.32 6.32 -1 7 C -1.99 7 -2.98 7 -4 7 C -4 6.34 -4 5.68 -4 5 C -3.34 5 -2.68 5 -2 5 C -1.34 3.35 -0.68 1.7 0 0 Z" stroke-linecap="round" />
</g>
</g>
</g>
</svg>